G04 (created by PCBNEW (2012-nov-02)-testing) date Sun 20 Jan 2013 14:43:10 CET*
%MOIN*%
G04 Gerber Fmt 3.4, Leading zero omitted, Abs format*
%FSLAX34Y34*%
G01*
G70*
G90*
G04 APERTURE LIST*
%ADD10C,0.006*%
%ADD11C,0.00590551*%
%ADD12R,0.144X0.08*%
%ADD13R,0.04X0.08*%
%ADD14R,0.055X0.035*%
%ADD15R,0.06X0.06*%
%ADD16C,0.06*%
%ADD17C,0.0394*%
%ADD18R,0.0472441X0.0472441*%
%ADD19R,0.025X0.045*%
%ADD20C,0.035*%
%ADD21C,0.032*%
%ADD22C,0.015*%
%ADD23C,0.01*%
G04 APERTURE END LIST*
G54D10*
G54D11*
X48031Y-48425D02*
G75*
G03X47637Y-48031I-393J0D01*
G74*
G01*
X47637Y-48031D02*
G75*
G03X47244Y-48425I0J-393D01*
G74*
G01*
X47244Y-40157D02*
G75*
G03X47637Y-40551I393J0D01*
G74*
G01*
X47637Y-40551D02*
G75*
G03X48031Y-40157I0J393D01*
G74*
G01*
X39370Y-48425D02*
G75*
G03X40157Y-49212I787J0D01*
G74*
G01*
X46456Y-39370D02*
X40157Y-39370D01*
X40157Y-49212D02*
X46456Y-49212D01*
X39370Y-40157D02*
X39370Y-48425D01*
X46456Y-49212D02*
G75*
G03X47244Y-48425I0J787D01*
G74*
G01*
X47244Y-40157D02*
G75*
G03X46456Y-39370I-787J0D01*
G74*
G01*
X40157Y-39370D02*
G75*
G03X39370Y-40157I0J-787D01*
G74*
G01*
X48031Y-48425D02*
G75*
G03X48818Y-49212I787J0D01*
G74*
G01*
X55118Y-39370D02*
X48818Y-39370D01*
X55905Y-48425D02*
X55905Y-40157D01*
X48818Y-49212D02*
X55118Y-49212D01*
X55118Y-49212D02*
G75*
G03X55905Y-48425I0J787D01*
G74*
G01*
X55905Y-40157D02*
G75*
G03X55118Y-39370I-787J0D01*
G74*
G01*
X48818Y-39370D02*
G75*
G03X48031Y-40157I0J-787D01*
G74*
G01*
G54D12*
X43307Y-43424D03*
G54D13*
X43307Y-46024D03*
X42407Y-46024D03*
X44207Y-46024D03*
G54D14*
X41102Y-46123D03*
X41102Y-45373D03*
X45354Y-45451D03*
X45354Y-46201D03*
X45354Y-43168D03*
X45354Y-43918D03*
G54D15*
X42307Y-40893D03*
G54D16*
X42307Y-39893D03*
X43307Y-40893D03*
X43307Y-39893D03*
X44307Y-40893D03*
X44307Y-39893D03*
G54D15*
X40000Y-43255D03*
G54D16*
X40000Y-42255D03*
G54D17*
X44173Y-47480D03*
X42441Y-47480D03*
G54D18*
X40354Y-48188D03*
X40354Y-47086D03*
X46259Y-48031D03*
X46259Y-46929D03*
G54D19*
X42613Y-44724D03*
X43213Y-44724D03*
G54D12*
X51968Y-43424D03*
G54D13*
X51968Y-46024D03*
X51068Y-46024D03*
X52868Y-46024D03*
G54D14*
X49763Y-46123D03*
X49763Y-45373D03*
X54015Y-45451D03*
X54015Y-46201D03*
X54015Y-43168D03*
X54015Y-43918D03*
G54D15*
X50968Y-40893D03*
G54D16*
X50968Y-39893D03*
X51968Y-40893D03*
X51968Y-39893D03*
X52968Y-40893D03*
X52968Y-39893D03*
G54D15*
X48661Y-43255D03*
G54D16*
X48661Y-42255D03*
G54D17*
X52834Y-47480D03*
X51102Y-47480D03*
G54D18*
X49015Y-48188D03*
X49015Y-47086D03*
X54921Y-48031D03*
X54921Y-46929D03*
G54D19*
X51274Y-44724D03*
X51874Y-44724D03*
G54D20*
X41889Y-45511D03*
X50551Y-45511D03*
X45984Y-42440D03*
X54645Y-42440D03*
X41338Y-41811D03*
X50000Y-41811D03*
X45000Y-41653D03*
X39842Y-41259D03*
X41692Y-44251D03*
X40275Y-46220D03*
X46141Y-46259D03*
X40787Y-48622D03*
X45984Y-48622D03*
X53661Y-41653D03*
X48503Y-41259D03*
X50354Y-44251D03*
X48937Y-46220D03*
X54803Y-46259D03*
X49448Y-48622D03*
X54645Y-48622D03*
X42834Y-48031D03*
X51496Y-48031D03*
X43464Y-48031D03*
X52125Y-48031D03*
X43937Y-42204D03*
X52598Y-42204D03*
G54D21*
X41889Y-45511D02*
X41889Y-45787D01*
X42225Y-46123D02*
X42407Y-46024D01*
X41889Y-45787D02*
X42225Y-46123D01*
X41102Y-46123D02*
X42308Y-46123D01*
X42308Y-46123D02*
X42407Y-46024D01*
X42407Y-46024D02*
X42407Y-44930D01*
X42407Y-44930D02*
X42613Y-44724D01*
X50551Y-45511D02*
X50551Y-45787D01*
X50886Y-46123D02*
X51068Y-46024D01*
X50551Y-45787D02*
X50886Y-46123D01*
X49763Y-46123D02*
X50969Y-46123D01*
X50969Y-46123D02*
X51068Y-46024D01*
X51068Y-46024D02*
X51068Y-44930D01*
X51068Y-44930D02*
X51274Y-44724D01*
G54D22*
X43807Y-40393D02*
X43307Y-39893D01*
X45551Y-40393D02*
X43807Y-40393D01*
X45984Y-40826D02*
X45551Y-40393D01*
X45984Y-42440D02*
X45984Y-40826D01*
X52468Y-40393D02*
X51968Y-39893D01*
X54212Y-40393D02*
X52468Y-40393D01*
X54645Y-40826D02*
X54212Y-40393D01*
X54645Y-42440D02*
X54645Y-40826D01*
X44307Y-41362D02*
X44307Y-40893D01*
X44173Y-41496D02*
X44307Y-41362D01*
X41653Y-41496D02*
X44173Y-41496D01*
X41338Y-41811D02*
X41653Y-41496D01*
X52968Y-41362D02*
X52968Y-40893D01*
X52834Y-41496D02*
X52968Y-41362D01*
X50314Y-41496D02*
X52834Y-41496D01*
X50000Y-41811D02*
X50314Y-41496D01*
X44803Y-41850D02*
X45000Y-41653D01*
X43307Y-41850D02*
X44803Y-41850D01*
X42874Y-42283D02*
X43307Y-41850D01*
X41062Y-42283D02*
X42874Y-42283D01*
X40944Y-42165D02*
X41062Y-42283D01*
X40944Y-41850D02*
X40944Y-42165D01*
X40511Y-41417D02*
X40944Y-41850D01*
X40000Y-41417D02*
X40511Y-41417D01*
X39842Y-41259D02*
X40000Y-41417D01*
G54D21*
X44307Y-39893D02*
X44909Y-39893D01*
X44909Y-39893D02*
X44921Y-39881D01*
G54D22*
X53464Y-41850D02*
X53661Y-41653D01*
X51968Y-41850D02*
X53464Y-41850D01*
X51535Y-42283D02*
X51968Y-41850D01*
X49724Y-42283D02*
X51535Y-42283D01*
X49606Y-42165D02*
X49724Y-42283D01*
X49606Y-41850D02*
X49606Y-42165D01*
X49173Y-41417D02*
X49606Y-41850D01*
X48661Y-41417D02*
X49173Y-41417D01*
X48503Y-41259D02*
X48661Y-41417D01*
G54D21*
X52968Y-39893D02*
X53570Y-39893D01*
X53570Y-39893D02*
X53582Y-39881D01*
G54D22*
X40354Y-47086D02*
X40354Y-47165D01*
X41220Y-48031D02*
X42834Y-48031D01*
X40354Y-47165D02*
X41220Y-48031D01*
X49015Y-47086D02*
X49015Y-47165D01*
X49881Y-48031D02*
X51496Y-48031D01*
X49015Y-47165D02*
X49881Y-48031D01*
X46259Y-46929D02*
X46259Y-47125D01*
X45354Y-48031D02*
X43464Y-48031D01*
X46259Y-47125D02*
X45354Y-48031D01*
X54921Y-46929D02*
X54921Y-47125D01*
X54015Y-48031D02*
X52125Y-48031D01*
X54921Y-47125D02*
X54015Y-48031D01*
G54D21*
X43307Y-42834D02*
X43937Y-42204D01*
X43307Y-42834D02*
X43307Y-43424D01*
X45354Y-43168D02*
X46002Y-43168D01*
X45965Y-45451D02*
X45354Y-45451D01*
X46220Y-45196D02*
X45965Y-45451D01*
X46220Y-43385D02*
X46220Y-45196D01*
X46002Y-43168D02*
X46220Y-43385D01*
X45354Y-43168D02*
X43563Y-43168D01*
X43563Y-43168D02*
X43307Y-43424D01*
X43307Y-43424D02*
X40168Y-43424D01*
X40168Y-43424D02*
X40000Y-43255D01*
X43307Y-43424D02*
X43307Y-44630D01*
X43307Y-44630D02*
X43213Y-44724D01*
X43307Y-46024D02*
X43307Y-44818D01*
X43307Y-44818D02*
X43213Y-44724D01*
X51968Y-42834D02*
X52598Y-42204D01*
X51968Y-42834D02*
X51968Y-43424D01*
X54015Y-43168D02*
X54664Y-43168D01*
X54626Y-45451D02*
X54015Y-45451D01*
X54881Y-45196D02*
X54626Y-45451D01*
X54881Y-43385D02*
X54881Y-45196D01*
X54664Y-43168D02*
X54881Y-43385D01*
X54015Y-43168D02*
X52224Y-43168D01*
X52224Y-43168D02*
X51968Y-43424D01*
X51968Y-43424D02*
X48829Y-43424D01*
X48829Y-43424D02*
X48661Y-43255D01*
X51968Y-43424D02*
X51968Y-44630D01*
X51968Y-44630D02*
X51874Y-44724D01*
X51968Y-46024D02*
X51968Y-44818D01*
X51968Y-44818D02*
X51874Y-44724D01*
G54D10*
G36*
X43752Y-41821D02*
X43696Y-41844D01*
X43576Y-41963D01*
X43561Y-42000D01*
X43017Y-42544D01*
X42928Y-42677D01*
X42909Y-42774D01*
X42537Y-42774D01*
X42445Y-42812D01*
X42375Y-42882D01*
X42337Y-42974D01*
X42337Y-43014D01*
X40550Y-43014D01*
X40550Y-42906D01*
X40512Y-42814D01*
X40441Y-42744D01*
X40349Y-42705D01*
X40327Y-42705D01*
X40465Y-42567D01*
X40549Y-42365D01*
X40550Y-42146D01*
X40466Y-41944D01*
X40311Y-41789D01*
X40109Y-41706D01*
X39891Y-41705D01*
X39688Y-41789D01*
X39649Y-41828D01*
X39649Y-40185D01*
X39693Y-39964D01*
X39801Y-39802D01*
X39965Y-39693D01*
X40183Y-39649D01*
X41812Y-39649D01*
X41757Y-39783D01*
X41756Y-40002D01*
X41840Y-40204D01*
X41979Y-40343D01*
X41957Y-40343D01*
X41865Y-40381D01*
X41795Y-40451D01*
X41757Y-40543D01*
X41757Y-40643D01*
X41757Y-41171D01*
X41653Y-41171D01*
X41653Y-41171D01*
X41628Y-41175D01*
X41529Y-41195D01*
X41423Y-41266D01*
X41423Y-41266D01*
X41303Y-41385D01*
X41254Y-41385D01*
X41098Y-41450D01*
X40978Y-41569D01*
X40913Y-41726D01*
X40913Y-41895D01*
X40978Y-42051D01*
X41097Y-42171D01*
X41253Y-42235D01*
X41422Y-42236D01*
X41579Y-42171D01*
X41698Y-42052D01*
X41763Y-41895D01*
X41763Y-41845D01*
X41788Y-41821D01*
X43752Y-41821D01*
X43752Y-41821D01*
G37*
G54D23*
X43752Y-41821D02*
X43696Y-41844D01*
X43576Y-41963D01*
X43561Y-42000D01*
X43017Y-42544D01*
X42928Y-42677D01*
X42909Y-42774D01*
X42537Y-42774D01*
X42445Y-42812D01*
X42375Y-42882D01*
X42337Y-42974D01*
X42337Y-43014D01*
X40550Y-43014D01*
X40550Y-42906D01*
X40512Y-42814D01*
X40441Y-42744D01*
X40349Y-42705D01*
X40327Y-42705D01*
X40465Y-42567D01*
X40549Y-42365D01*
X40550Y-42146D01*
X40466Y-41944D01*
X40311Y-41789D01*
X40109Y-41706D01*
X39891Y-41705D01*
X39688Y-41789D01*
X39649Y-41828D01*
X39649Y-40185D01*
X39693Y-39964D01*
X39801Y-39802D01*
X39965Y-39693D01*
X40183Y-39649D01*
X41812Y-39649D01*
X41757Y-39783D01*
X41756Y-40002D01*
X41840Y-40204D01*
X41979Y-40343D01*
X41957Y-40343D01*
X41865Y-40381D01*
X41795Y-40451D01*
X41757Y-40543D01*
X41757Y-40643D01*
X41757Y-41171D01*
X41653Y-41171D01*
X41653Y-41171D01*
X41628Y-41175D01*
X41529Y-41195D01*
X41423Y-41266D01*
X41423Y-41266D01*
X41303Y-41385D01*
X41254Y-41385D01*
X41098Y-41450D01*
X40978Y-41569D01*
X40913Y-41726D01*
X40913Y-41895D01*
X40978Y-42051D01*
X41097Y-42171D01*
X41253Y-42235D01*
X41422Y-42236D01*
X41579Y-42171D01*
X41698Y-42052D01*
X41763Y-41895D01*
X41763Y-41845D01*
X41788Y-41821D01*
X43752Y-41821D01*
G54D10*
G36*
X44342Y-39893D02*
X44307Y-39929D01*
X44271Y-39893D01*
X44307Y-39858D01*
X44342Y-39893D01*
X44342Y-39893D01*
G37*
G54D23*
X44342Y-39893D02*
X44307Y-39929D01*
X44271Y-39893D01*
X44307Y-39858D01*
X44342Y-39893D01*
G54D10*
G36*
X45690Y-42747D02*
X45679Y-42743D01*
X45579Y-42743D01*
X45029Y-42743D01*
X44993Y-42758D01*
X43963Y-42758D01*
X44141Y-42580D01*
X44177Y-42565D01*
X44297Y-42445D01*
X44361Y-42289D01*
X44362Y-42120D01*
X44297Y-41964D01*
X44178Y-41844D01*
X44121Y-41821D01*
X44173Y-41821D01*
X44297Y-41796D01*
X44297Y-41796D01*
X44403Y-41725D01*
X44536Y-41592D01*
X44536Y-41592D01*
X44536Y-41592D01*
X44607Y-41486D01*
X44607Y-41486D01*
X44632Y-41362D01*
X44632Y-41346D01*
X44773Y-41205D01*
X44856Y-41003D01*
X44857Y-40784D01*
X44829Y-40718D01*
X45416Y-40718D01*
X45659Y-40961D01*
X45659Y-42164D01*
X45624Y-42199D01*
X45559Y-42356D01*
X45559Y-42525D01*
X45623Y-42681D01*
X45690Y-42747D01*
X45690Y-42747D01*
G37*
G54D23*
X45690Y-42747D02*
X45679Y-42743D01*
X45579Y-42743D01*
X45029Y-42743D01*
X44993Y-42758D01*
X43963Y-42758D01*
X44141Y-42580D01*
X44177Y-42565D01*
X44297Y-42445D01*
X44361Y-42289D01*
X44362Y-42120D01*
X44297Y-41964D01*
X44178Y-41844D01*
X44121Y-41821D01*
X44173Y-41821D01*
X44297Y-41796D01*
X44297Y-41796D01*
X44403Y-41725D01*
X44536Y-41592D01*
X44536Y-41592D01*
X44536Y-41592D01*
X44607Y-41486D01*
X44607Y-41486D01*
X44632Y-41362D01*
X44632Y-41346D01*
X44773Y-41205D01*
X44856Y-41003D01*
X44857Y-40784D01*
X44829Y-40718D01*
X45416Y-40718D01*
X45659Y-40961D01*
X45659Y-42164D01*
X45624Y-42199D01*
X45559Y-42356D01*
X45559Y-42525D01*
X45623Y-42681D01*
X45690Y-42747D01*
G54D10*
G36*
X47046Y-46161D02*
X46948Y-46259D01*
X46895Y-46387D01*
X46895Y-46525D01*
X46948Y-46653D01*
X46895Y-46780D01*
X46895Y-46919D01*
X46948Y-47047D01*
X46895Y-47174D01*
X46895Y-47313D01*
X46948Y-47441D01*
X46895Y-47568D01*
X46895Y-47706D01*
X46948Y-47834D01*
X46895Y-47961D01*
X46895Y-48100D01*
X46948Y-48228D01*
X47005Y-48285D01*
X46970Y-48370D01*
X46921Y-48616D01*
X46811Y-48780D01*
X46746Y-48824D01*
X46746Y-47115D01*
X46746Y-46643D01*
X46708Y-46551D01*
X46637Y-46481D01*
X46546Y-46442D01*
X46446Y-46442D01*
X45974Y-46442D01*
X45882Y-46480D01*
X45811Y-46551D01*
X45779Y-46629D01*
X45779Y-46406D01*
X45779Y-46264D01*
X45741Y-46226D01*
X45379Y-46226D01*
X45379Y-46489D01*
X45416Y-46526D01*
X45599Y-46526D01*
X45659Y-46526D01*
X45714Y-46503D01*
X45756Y-46461D01*
X45779Y-46406D01*
X45779Y-46629D01*
X45773Y-46642D01*
X45773Y-46742D01*
X45773Y-47152D01*
X45329Y-47596D01*
X45329Y-46489D01*
X45329Y-46226D01*
X44966Y-46226D01*
X44929Y-46264D01*
X44929Y-46406D01*
X44952Y-46461D01*
X44994Y-46503D01*
X45049Y-46526D01*
X45109Y-46526D01*
X45291Y-46526D01*
X45329Y-46489D01*
X45329Y-47596D01*
X45219Y-47706D01*
X44563Y-47706D01*
X44620Y-47569D01*
X44620Y-47391D01*
X44557Y-47239D01*
X44557Y-46394D01*
X44557Y-45654D01*
X44557Y-45594D01*
X44534Y-45539D01*
X44491Y-45497D01*
X44436Y-45474D01*
X44269Y-45474D01*
X44232Y-45511D01*
X44232Y-45999D01*
X44519Y-45999D01*
X44557Y-45961D01*
X44557Y-45654D01*
X44557Y-46394D01*
X44557Y-46086D01*
X44519Y-46049D01*
X44232Y-46049D01*
X44232Y-46536D01*
X44269Y-46574D01*
X44436Y-46574D01*
X44491Y-46551D01*
X44534Y-46509D01*
X44557Y-46454D01*
X44557Y-46394D01*
X44557Y-47239D01*
X44552Y-47227D01*
X44426Y-47101D01*
X44262Y-47033D01*
X44182Y-47033D01*
X44182Y-46536D01*
X44182Y-46049D01*
X44182Y-45999D01*
X44182Y-45511D01*
X44144Y-45474D01*
X43977Y-45474D01*
X43922Y-45497D01*
X43879Y-45539D01*
X43857Y-45594D01*
X43857Y-45654D01*
X43857Y-45961D01*
X43894Y-45999D01*
X44182Y-45999D01*
X44182Y-46049D01*
X43894Y-46049D01*
X43857Y-46086D01*
X43857Y-46394D01*
X43857Y-46454D01*
X43879Y-46509D01*
X43922Y-46551D01*
X43977Y-46574D01*
X44144Y-46574D01*
X44182Y-46536D01*
X44182Y-47033D01*
X44084Y-47033D01*
X43920Y-47101D01*
X43794Y-47226D01*
X43726Y-47391D01*
X43726Y-47568D01*
X43782Y-47706D01*
X43740Y-47706D01*
X43705Y-47671D01*
X43549Y-47606D01*
X43380Y-47606D01*
X43224Y-47670D01*
X43149Y-47745D01*
X43075Y-47671D01*
X42919Y-47606D01*
X42872Y-47606D01*
X42888Y-47569D01*
X42888Y-47391D01*
X42820Y-47227D01*
X42694Y-47101D01*
X42530Y-47033D01*
X42352Y-47033D01*
X42188Y-47101D01*
X42062Y-47226D01*
X41994Y-47391D01*
X41994Y-47568D01*
X42050Y-47706D01*
X41355Y-47706D01*
X40840Y-47191D01*
X40840Y-46800D01*
X40802Y-46708D01*
X40732Y-46638D01*
X40640Y-46600D01*
X40541Y-46600D01*
X40068Y-46600D01*
X39976Y-46638D01*
X39906Y-46708D01*
X39868Y-46800D01*
X39868Y-46899D01*
X39868Y-47372D01*
X39906Y-47464D01*
X39976Y-47534D01*
X40068Y-47572D01*
X40167Y-47572D01*
X40302Y-47572D01*
X40532Y-47802D01*
X40416Y-47802D01*
X40379Y-47840D01*
X40379Y-48163D01*
X40703Y-48163D01*
X40740Y-48126D01*
X40740Y-48011D01*
X40990Y-48261D01*
X40990Y-48261D01*
X41096Y-48331D01*
X41096Y-48331D01*
X41195Y-48351D01*
X41220Y-48356D01*
X41220Y-48356D01*
X41220Y-48356D01*
X42558Y-48356D01*
X42593Y-48391D01*
X42749Y-48456D01*
X42918Y-48456D01*
X43075Y-48392D01*
X43149Y-48317D01*
X43223Y-48391D01*
X43379Y-48456D01*
X43548Y-48456D01*
X43704Y-48392D01*
X43740Y-48356D01*
X45354Y-48356D01*
X45478Y-48331D01*
X45478Y-48331D01*
X45584Y-48261D01*
X45875Y-47970D01*
X45911Y-48006D01*
X46234Y-48006D01*
X46234Y-47682D01*
X46198Y-47646D01*
X46430Y-47415D01*
X46545Y-47415D01*
X46637Y-47377D01*
X46707Y-47307D01*
X46746Y-47215D01*
X46746Y-47115D01*
X46746Y-48824D01*
X46649Y-48889D01*
X46646Y-48889D01*
X46646Y-48297D01*
X46646Y-47765D01*
X46623Y-47710D01*
X46581Y-47668D01*
X46526Y-47645D01*
X46466Y-47645D01*
X46322Y-47645D01*
X46284Y-47682D01*
X46284Y-48006D01*
X46608Y-48006D01*
X46646Y-47968D01*
X46646Y-47765D01*
X46646Y-48297D01*
X46646Y-48093D01*
X46608Y-48056D01*
X46284Y-48056D01*
X46284Y-48380D01*
X46322Y-48417D01*
X46466Y-48417D01*
X46526Y-48417D01*
X46581Y-48394D01*
X46623Y-48352D01*
X46646Y-48297D01*
X46646Y-48889D01*
X46429Y-48933D01*
X46234Y-48933D01*
X46234Y-48380D01*
X46234Y-48056D01*
X45911Y-48056D01*
X45873Y-48093D01*
X45873Y-48297D01*
X45896Y-48352D01*
X45938Y-48394D01*
X45993Y-48417D01*
X46053Y-48417D01*
X46197Y-48417D01*
X46234Y-48380D01*
X46234Y-48933D01*
X40740Y-48933D01*
X40740Y-48454D01*
X40740Y-48251D01*
X40703Y-48213D01*
X40379Y-48213D01*
X40379Y-48537D01*
X40416Y-48575D01*
X40560Y-48575D01*
X40620Y-48575D01*
X40675Y-48552D01*
X40717Y-48510D01*
X40740Y-48454D01*
X40740Y-48933D01*
X40329Y-48933D01*
X40329Y-48537D01*
X40329Y-48213D01*
X40329Y-48163D01*
X40329Y-47840D01*
X40291Y-47802D01*
X40147Y-47802D01*
X40088Y-47802D01*
X40033Y-47825D01*
X39990Y-47867D01*
X39968Y-47923D01*
X39968Y-48126D01*
X40005Y-48163D01*
X40329Y-48163D01*
X40329Y-48213D01*
X40005Y-48213D01*
X39968Y-48251D01*
X39968Y-48454D01*
X39990Y-48510D01*
X40033Y-48552D01*
X40088Y-48575D01*
X40147Y-48575D01*
X40291Y-48575D01*
X40329Y-48537D01*
X40329Y-48933D01*
X40183Y-48933D01*
X39965Y-48889D01*
X39801Y-48780D01*
X39693Y-48618D01*
X39649Y-48397D01*
X39649Y-43805D01*
X39650Y-43805D01*
X39749Y-43805D01*
X40025Y-43805D01*
X40025Y-43805D01*
X40168Y-43834D01*
X42337Y-43834D01*
X42337Y-43873D01*
X42375Y-43965D01*
X42445Y-44036D01*
X42537Y-44074D01*
X42636Y-44074D01*
X42897Y-44074D01*
X42897Y-44304D01*
X42880Y-44287D01*
X42788Y-44249D01*
X42688Y-44249D01*
X42438Y-44249D01*
X42346Y-44287D01*
X42276Y-44357D01*
X42238Y-44449D01*
X42238Y-44519D01*
X42117Y-44640D01*
X42028Y-44773D01*
X41997Y-44930D01*
X41997Y-45096D01*
X41974Y-45086D01*
X41805Y-45086D01*
X41649Y-45151D01*
X41529Y-45270D01*
X41527Y-45276D01*
X41527Y-45168D01*
X41504Y-45113D01*
X41462Y-45070D01*
X41407Y-45048D01*
X41347Y-45048D01*
X41164Y-45048D01*
X41127Y-45085D01*
X41127Y-45298D01*
X41127Y-45348D01*
X41127Y-45398D01*
X41077Y-45398D01*
X41077Y-45348D01*
X41077Y-45085D01*
X41039Y-45048D01*
X40857Y-45048D01*
X40797Y-45048D01*
X40742Y-45070D01*
X40700Y-45113D01*
X40677Y-45168D01*
X40677Y-45310D01*
X40714Y-45348D01*
X41077Y-45348D01*
X41077Y-45398D01*
X41027Y-45398D01*
X40714Y-45398D01*
X40677Y-45435D01*
X40677Y-45577D01*
X40700Y-45632D01*
X40742Y-45675D01*
X40797Y-45697D01*
X40777Y-45697D01*
X40685Y-45735D01*
X40615Y-45806D01*
X40577Y-45898D01*
X40577Y-45997D01*
X40577Y-46347D01*
X40615Y-46439D01*
X40685Y-46509D01*
X40777Y-46547D01*
X40876Y-46548D01*
X41426Y-46548D01*
X41463Y-46533D01*
X41981Y-46533D01*
X41995Y-46565D01*
X42065Y-46636D01*
X42157Y-46674D01*
X42256Y-46674D01*
X42656Y-46674D01*
X42748Y-46636D01*
X42818Y-46566D01*
X42857Y-46474D01*
X42857Y-46473D01*
X42857Y-46473D01*
X42895Y-46565D01*
X42965Y-46636D01*
X43057Y-46674D01*
X43156Y-46674D01*
X43556Y-46674D01*
X43648Y-46636D01*
X43718Y-46566D01*
X43757Y-46474D01*
X43757Y-46374D01*
X43757Y-45574D01*
X43719Y-45482D01*
X43717Y-45480D01*
X43717Y-44818D01*
X43717Y-44818D01*
X43698Y-44724D01*
X43698Y-44724D01*
X43717Y-44630D01*
X43717Y-44630D01*
X43717Y-44074D01*
X44076Y-44074D01*
X44168Y-44036D01*
X44238Y-43966D01*
X44277Y-43874D01*
X44277Y-43774D01*
X44277Y-43578D01*
X44993Y-43578D01*
X45029Y-43593D01*
X45079Y-43593D01*
X45049Y-43593D01*
X44994Y-43616D01*
X44952Y-43658D01*
X44929Y-43713D01*
X44929Y-43855D01*
X44966Y-43893D01*
X45279Y-43893D01*
X45329Y-43893D01*
X45379Y-43893D01*
X45429Y-43893D01*
X45741Y-43893D01*
X45779Y-43855D01*
X45779Y-43713D01*
X45756Y-43658D01*
X45714Y-43616D01*
X45659Y-43593D01*
X45678Y-43593D01*
X45715Y-43578D01*
X45810Y-43578D01*
X45810Y-45027D01*
X45795Y-45041D01*
X45779Y-45041D01*
X45779Y-44123D01*
X45779Y-43980D01*
X45741Y-43943D01*
X45379Y-43943D01*
X45379Y-44205D01*
X45416Y-44243D01*
X45599Y-44243D01*
X45659Y-44243D01*
X45714Y-44220D01*
X45756Y-44178D01*
X45779Y-44123D01*
X45779Y-45041D01*
X45715Y-45041D01*
X45679Y-45026D01*
X45579Y-45026D01*
X45329Y-45026D01*
X45329Y-44205D01*
X45329Y-43943D01*
X44966Y-43943D01*
X44929Y-43980D01*
X44929Y-44123D01*
X44952Y-44178D01*
X44994Y-44220D01*
X45049Y-44243D01*
X45109Y-44243D01*
X45291Y-44243D01*
X45329Y-44205D01*
X45329Y-45026D01*
X45029Y-45026D01*
X44937Y-45064D01*
X44867Y-45134D01*
X44829Y-45226D01*
X44829Y-45326D01*
X44829Y-45676D01*
X44867Y-45768D01*
X44937Y-45838D01*
X45029Y-45876D01*
X45079Y-45876D01*
X45049Y-45876D01*
X44994Y-45899D01*
X44952Y-45941D01*
X44929Y-45997D01*
X44929Y-46139D01*
X44966Y-46176D01*
X45279Y-46176D01*
X45329Y-46176D01*
X45379Y-46176D01*
X45429Y-46176D01*
X45741Y-46176D01*
X45779Y-46139D01*
X45779Y-45997D01*
X45756Y-45941D01*
X45714Y-45899D01*
X45659Y-45876D01*
X45678Y-45876D01*
X45715Y-45861D01*
X45965Y-45861D01*
X46122Y-45830D01*
X46122Y-45830D01*
X46255Y-45741D01*
X46510Y-45486D01*
X46599Y-45353D01*
X46599Y-45353D01*
X46630Y-45196D01*
X46630Y-43385D01*
X46630Y-43385D01*
X46599Y-43228D01*
X46510Y-43095D01*
X46510Y-43095D01*
X46292Y-42878D01*
X46195Y-42813D01*
X46224Y-42801D01*
X46344Y-42682D01*
X46409Y-42525D01*
X46409Y-42356D01*
X46344Y-42200D01*
X46309Y-42164D01*
X46309Y-40826D01*
X46309Y-40826D01*
X46309Y-40826D01*
X46304Y-40802D01*
X46284Y-40702D01*
X46284Y-40702D01*
X46214Y-40596D01*
X46214Y-40596D01*
X45780Y-40163D01*
X45675Y-40093D01*
X45551Y-40068D01*
X44721Y-40068D01*
X44758Y-39976D01*
X44755Y-39797D01*
X44694Y-39649D01*
X46429Y-39649D01*
X46649Y-39693D01*
X46811Y-39801D01*
X46921Y-39965D01*
X46969Y-40210D01*
X46969Y-40211D01*
X46989Y-40312D01*
X46948Y-40353D01*
X46895Y-40481D01*
X46895Y-40620D01*
X46948Y-40748D01*
X46895Y-40875D01*
X46895Y-41013D01*
X46948Y-41141D01*
X46895Y-41268D01*
X46895Y-41407D01*
X46948Y-41535D01*
X46895Y-41662D01*
X46895Y-41801D01*
X46948Y-41929D01*
X46895Y-42056D01*
X46895Y-42194D01*
X46948Y-42323D01*
X47046Y-42421D01*
X47046Y-42421D01*
X47043Y-42426D01*
X46994Y-42673D01*
X46994Y-45909D01*
X47043Y-46155D01*
X47046Y-46161D01*
X47046Y-46161D01*
G37*
G54D23*
X47046Y-46161D02*
X46948Y-46259D01*
X46895Y-46387D01*
X46895Y-46525D01*
X46948Y-46653D01*
X46895Y-46780D01*
X46895Y-46919D01*
X46948Y-47047D01*
X46895Y-47174D01*
X46895Y-47313D01*
X46948Y-47441D01*
X46895Y-47568D01*
X46895Y-47706D01*
X46948Y-47834D01*
X46895Y-47961D01*
X46895Y-48100D01*
X46948Y-48228D01*
X47005Y-48285D01*
X46970Y-48370D01*
X46921Y-48616D01*
X46811Y-48780D01*
X46746Y-48824D01*
X46746Y-47115D01*
X46746Y-46643D01*
X46708Y-46551D01*
X46637Y-46481D01*
X46546Y-46442D01*
X46446Y-46442D01*
X45974Y-46442D01*
X45882Y-46480D01*
X45811Y-46551D01*
X45779Y-46629D01*
X45779Y-46406D01*
X45779Y-46264D01*
X45741Y-46226D01*
X45379Y-46226D01*
X45379Y-46489D01*
X45416Y-46526D01*
X45599Y-46526D01*
X45659Y-46526D01*
X45714Y-46503D01*
X45756Y-46461D01*
X45779Y-46406D01*
X45779Y-46629D01*
X45773Y-46642D01*
X45773Y-46742D01*
X45773Y-47152D01*
X45329Y-47596D01*
X45329Y-46489D01*
X45329Y-46226D01*
X44966Y-46226D01*
X44929Y-46264D01*
X44929Y-46406D01*
X44952Y-46461D01*
X44994Y-46503D01*
X45049Y-46526D01*
X45109Y-46526D01*
X45291Y-46526D01*
X45329Y-46489D01*
X45329Y-47596D01*
X45219Y-47706D01*
X44563Y-47706D01*
X44620Y-47569D01*
X44620Y-47391D01*
X44557Y-47239D01*
X44557Y-46394D01*
X44557Y-45654D01*
X44557Y-45594D01*
X44534Y-45539D01*
X44491Y-45497D01*
X44436Y-45474D01*
X44269Y-45474D01*
X44232Y-45511D01*
X44232Y-45999D01*
X44519Y-45999D01*
X44557Y-45961D01*
X44557Y-45654D01*
X44557Y-46394D01*
X44557Y-46086D01*
X44519Y-46049D01*
X44232Y-46049D01*
X44232Y-46536D01*
X44269Y-46574D01*
X44436Y-46574D01*
X44491Y-46551D01*
X44534Y-46509D01*
X44557Y-46454D01*
X44557Y-46394D01*
X44557Y-47239D01*
X44552Y-47227D01*
X44426Y-47101D01*
X44262Y-47033D01*
X44182Y-47033D01*
X44182Y-46536D01*
X44182Y-46049D01*
X44182Y-45999D01*
X44182Y-45511D01*
X44144Y-45474D01*
X43977Y-45474D01*
X43922Y-45497D01*
X43879Y-45539D01*
X43857Y-45594D01*
X43857Y-45654D01*
X43857Y-45961D01*
X43894Y-45999D01*
X44182Y-45999D01*
X44182Y-46049D01*
X43894Y-46049D01*
X43857Y-46086D01*
X43857Y-46394D01*
X43857Y-46454D01*
X43879Y-46509D01*
X43922Y-46551D01*
X43977Y-46574D01*
X44144Y-46574D01*
X44182Y-46536D01*
X44182Y-47033D01*
X44084Y-47033D01*
X43920Y-47101D01*
X43794Y-47226D01*
X43726Y-47391D01*
X43726Y-47568D01*
X43782Y-47706D01*
X43740Y-47706D01*
X43705Y-47671D01*
X43549Y-47606D01*
X43380Y-47606D01*
X43224Y-47670D01*
X43149Y-47745D01*
X43075Y-47671D01*
X42919Y-47606D01*
X42872Y-47606D01*
X42888Y-47569D01*
X42888Y-47391D01*
X42820Y-47227D01*
X42694Y-47101D01*
X42530Y-47033D01*
X42352Y-47033D01*
X42188Y-47101D01*
X42062Y-47226D01*
X41994Y-47391D01*
X41994Y-47568D01*
X42050Y-47706D01*
X41355Y-47706D01*
X40840Y-47191D01*
X40840Y-46800D01*
X40802Y-46708D01*
X40732Y-46638D01*
X40640Y-46600D01*
X40541Y-46600D01*
X40068Y-46600D01*
X39976Y-46638D01*
X39906Y-46708D01*
X39868Y-46800D01*
X39868Y-46899D01*
X39868Y-47372D01*
X39906Y-47464D01*
X39976Y-47534D01*
X40068Y-47572D01*
X40167Y-47572D01*
X40302Y-47572D01*
X40532Y-47802D01*
X40416Y-47802D01*
X40379Y-47840D01*
X40379Y-48163D01*
X40703Y-48163D01*
X40740Y-48126D01*
X40740Y-48011D01*
X40990Y-48261D01*
X40990Y-48261D01*
X41096Y-48331D01*
X41096Y-48331D01*
X41195Y-48351D01*
X41220Y-48356D01*
X41220Y-48356D01*
X41220Y-48356D01*
X42558Y-48356D01*
X42593Y-48391D01*
X42749Y-48456D01*
X42918Y-48456D01*
X43075Y-48392D01*
X43149Y-48317D01*
X43223Y-48391D01*
X43379Y-48456D01*
X43548Y-48456D01*
X43704Y-48392D01*
X43740Y-48356D01*
X45354Y-48356D01*
X45478Y-48331D01*
X45478Y-48331D01*
X45584Y-48261D01*
X45875Y-47970D01*
X45911Y-48006D01*
X46234Y-48006D01*
X46234Y-47682D01*
X46198Y-47646D01*
X46430Y-47415D01*
X46545Y-47415D01*
X46637Y-47377D01*
X46707Y-47307D01*
X46746Y-47215D01*
X46746Y-47115D01*
X46746Y-48824D01*
X46649Y-48889D01*
X46646Y-48889D01*
X46646Y-48297D01*
X46646Y-47765D01*
X46623Y-47710D01*
X46581Y-47668D01*
X46526Y-47645D01*
X46466Y-47645D01*
X46322Y-47645D01*
X46284Y-47682D01*
X46284Y-48006D01*
X46608Y-48006D01*
X46646Y-47968D01*
X46646Y-47765D01*
X46646Y-48297D01*
X46646Y-48093D01*
X46608Y-48056D01*
X46284Y-48056D01*
X46284Y-48380D01*
X46322Y-48417D01*
X46466Y-48417D01*
X46526Y-48417D01*
X46581Y-48394D01*
X46623Y-48352D01*
X46646Y-48297D01*
X46646Y-48889D01*
X46429Y-48933D01*
X46234Y-48933D01*
X46234Y-48380D01*
X46234Y-48056D01*
X45911Y-48056D01*
X45873Y-48093D01*
X45873Y-48297D01*
X45896Y-48352D01*
X45938Y-48394D01*
X45993Y-48417D01*
X46053Y-48417D01*
X46197Y-48417D01*
X46234Y-48380D01*
X46234Y-48933D01*
X40740Y-48933D01*
X40740Y-48454D01*
X40740Y-48251D01*
X40703Y-48213D01*
X40379Y-48213D01*
X40379Y-48537D01*
X40416Y-48575D01*
X40560Y-48575D01*
X40620Y-48575D01*
X40675Y-48552D01*
X40717Y-48510D01*
X40740Y-48454D01*
X40740Y-48933D01*
X40329Y-48933D01*
X40329Y-48537D01*
X40329Y-48213D01*
X40329Y-48163D01*
X40329Y-47840D01*
X40291Y-47802D01*
X40147Y-47802D01*
X40088Y-47802D01*
X40033Y-47825D01*
X39990Y-47867D01*
X39968Y-47923D01*
X39968Y-48126D01*
X40005Y-48163D01*
X40329Y-48163D01*
X40329Y-48213D01*
X40005Y-48213D01*
X39968Y-48251D01*
X39968Y-48454D01*
X39990Y-48510D01*
X40033Y-48552D01*
X40088Y-48575D01*
X40147Y-48575D01*
X40291Y-48575D01*
X40329Y-48537D01*
X40329Y-48933D01*
X40183Y-48933D01*
X39965Y-48889D01*
X39801Y-48780D01*
X39693Y-48618D01*
X39649Y-48397D01*
X39649Y-43805D01*
X39650Y-43805D01*
X39749Y-43805D01*
X40025Y-43805D01*
X40025Y-43805D01*
X40168Y-43834D01*
X42337Y-43834D01*
X42337Y-43873D01*
X42375Y-43965D01*
X42445Y-44036D01*
X42537Y-44074D01*
X42636Y-44074D01*
X42897Y-44074D01*
X42897Y-44304D01*
X42880Y-44287D01*
X42788Y-44249D01*
X42688Y-44249D01*
X42438Y-44249D01*
X42346Y-44287D01*
X42276Y-44357D01*
X42238Y-44449D01*
X42238Y-44519D01*
X42117Y-44640D01*
X42028Y-44773D01*
X41997Y-44930D01*
X41997Y-45096D01*
X41974Y-45086D01*
X41805Y-45086D01*
X41649Y-45151D01*
X41529Y-45270D01*
X41527Y-45276D01*
X41527Y-45168D01*
X41504Y-45113D01*
X41462Y-45070D01*
X41407Y-45048D01*
X41347Y-45048D01*
X41164Y-45048D01*
X41127Y-45085D01*
X41127Y-45298D01*
X41127Y-45348D01*
X41127Y-45398D01*
X41077Y-45398D01*
X41077Y-45348D01*
X41077Y-45085D01*
X41039Y-45048D01*
X40857Y-45048D01*
X40797Y-45048D01*
X40742Y-45070D01*
X40700Y-45113D01*
X40677Y-45168D01*
X40677Y-45310D01*
X40714Y-45348D01*
X41077Y-45348D01*
X41077Y-45398D01*
X41027Y-45398D01*
X40714Y-45398D01*
X40677Y-45435D01*
X40677Y-45577D01*
X40700Y-45632D01*
X40742Y-45675D01*
X40797Y-45697D01*
X40777Y-45697D01*
X40685Y-45735D01*
X40615Y-45806D01*
X40577Y-45898D01*
X40577Y-45997D01*
X40577Y-46347D01*
X40615Y-46439D01*
X40685Y-46509D01*
X40777Y-46547D01*
X40876Y-46548D01*
X41426Y-46548D01*
X41463Y-46533D01*
X41981Y-46533D01*
X41995Y-46565D01*
X42065Y-46636D01*
X42157Y-46674D01*
X42256Y-46674D01*
X42656Y-46674D01*
X42748Y-46636D01*
X42818Y-46566D01*
X42857Y-46474D01*
X42857Y-46473D01*
X42857Y-46473D01*
X42895Y-46565D01*
X42965Y-46636D01*
X43057Y-46674D01*
X43156Y-46674D01*
X43556Y-46674D01*
X43648Y-46636D01*
X43718Y-46566D01*
X43757Y-46474D01*
X43757Y-46374D01*
X43757Y-45574D01*
X43719Y-45482D01*
X43717Y-45480D01*
X43717Y-44818D01*
X43717Y-44818D01*
X43698Y-44724D01*
X43698Y-44724D01*
X43717Y-44630D01*
X43717Y-44630D01*
X43717Y-44074D01*
X44076Y-44074D01*
X44168Y-44036D01*
X44238Y-43966D01*
X44277Y-43874D01*
X44277Y-43774D01*
X44277Y-43578D01*
X44993Y-43578D01*
X45029Y-43593D01*
X45079Y-43593D01*
X45049Y-43593D01*
X44994Y-43616D01*
X44952Y-43658D01*
X44929Y-43713D01*
X44929Y-43855D01*
X44966Y-43893D01*
X45279Y-43893D01*
X45329Y-43893D01*
X45379Y-43893D01*
X45429Y-43893D01*
X45741Y-43893D01*
X45779Y-43855D01*
X45779Y-43713D01*
X45756Y-43658D01*
X45714Y-43616D01*
X45659Y-43593D01*
X45678Y-43593D01*
X45715Y-43578D01*
X45810Y-43578D01*
X45810Y-45027D01*
X45795Y-45041D01*
X45779Y-45041D01*
X45779Y-44123D01*
X45779Y-43980D01*
X45741Y-43943D01*
X45379Y-43943D01*
X45379Y-44205D01*
X45416Y-44243D01*
X45599Y-44243D01*
X45659Y-44243D01*
X45714Y-44220D01*
X45756Y-44178D01*
X45779Y-44123D01*
X45779Y-45041D01*
X45715Y-45041D01*
X45679Y-45026D01*
X45579Y-45026D01*
X45329Y-45026D01*
X45329Y-44205D01*
X45329Y-43943D01*
X44966Y-43943D01*
X44929Y-43980D01*
X44929Y-44123D01*
X44952Y-44178D01*
X44994Y-44220D01*
X45049Y-44243D01*
X45109Y-44243D01*
X45291Y-44243D01*
X45329Y-44205D01*
X45329Y-45026D01*
X45029Y-45026D01*
X44937Y-45064D01*
X44867Y-45134D01*
X44829Y-45226D01*
X44829Y-45326D01*
X44829Y-45676D01*
X44867Y-45768D01*
X44937Y-45838D01*
X45029Y-45876D01*
X45079Y-45876D01*
X45049Y-45876D01*
X44994Y-45899D01*
X44952Y-45941D01*
X44929Y-45997D01*
X44929Y-46139D01*
X44966Y-46176D01*
X45279Y-46176D01*
X45329Y-46176D01*
X45379Y-46176D01*
X45429Y-46176D01*
X45741Y-46176D01*
X45779Y-46139D01*
X45779Y-45997D01*
X45756Y-45941D01*
X45714Y-45899D01*
X45659Y-45876D01*
X45678Y-45876D01*
X45715Y-45861D01*
X45965Y-45861D01*
X46122Y-45830D01*
X46122Y-45830D01*
X46255Y-45741D01*
X46510Y-45486D01*
X46599Y-45353D01*
X46599Y-45353D01*
X46630Y-45196D01*
X46630Y-43385D01*
X46630Y-43385D01*
X46599Y-43228D01*
X46510Y-43095D01*
X46510Y-43095D01*
X46292Y-42878D01*
X46195Y-42813D01*
X46224Y-42801D01*
X46344Y-42682D01*
X46409Y-42525D01*
X46409Y-42356D01*
X46344Y-42200D01*
X46309Y-42164D01*
X46309Y-40826D01*
X46309Y-40826D01*
X46309Y-40826D01*
X46304Y-40802D01*
X46284Y-40702D01*
X46284Y-40702D01*
X46214Y-40596D01*
X46214Y-40596D01*
X45780Y-40163D01*
X45675Y-40093D01*
X45551Y-40068D01*
X44721Y-40068D01*
X44758Y-39976D01*
X44755Y-39797D01*
X44694Y-39649D01*
X46429Y-39649D01*
X46649Y-39693D01*
X46811Y-39801D01*
X46921Y-39965D01*
X46969Y-40210D01*
X46969Y-40211D01*
X46989Y-40312D01*
X46948Y-40353D01*
X46895Y-40481D01*
X46895Y-40620D01*
X46948Y-40748D01*
X46895Y-40875D01*
X46895Y-41013D01*
X46948Y-41141D01*
X46895Y-41268D01*
X46895Y-41407D01*
X46948Y-41535D01*
X46895Y-41662D01*
X46895Y-41801D01*
X46948Y-41929D01*
X46895Y-42056D01*
X46895Y-42194D01*
X46948Y-42323D01*
X47046Y-42421D01*
X47046Y-42421D01*
X47043Y-42426D01*
X46994Y-42673D01*
X46994Y-45909D01*
X47043Y-46155D01*
X47046Y-46161D01*
G54D10*
G36*
X52414Y-41821D02*
X52357Y-41844D01*
X52238Y-41963D01*
X52223Y-42000D01*
X51678Y-42544D01*
X51589Y-42677D01*
X51570Y-42774D01*
X51198Y-42774D01*
X51107Y-42812D01*
X51036Y-42882D01*
X50998Y-42974D01*
X50998Y-43014D01*
X49211Y-43014D01*
X49211Y-42906D01*
X49173Y-42814D01*
X49103Y-42744D01*
X49011Y-42705D01*
X48989Y-42705D01*
X49127Y-42567D01*
X49211Y-42365D01*
X49211Y-42146D01*
X49127Y-41944D01*
X48973Y-41789D01*
X48771Y-41706D01*
X48552Y-41705D01*
X48379Y-41777D01*
X48379Y-41663D01*
X48327Y-41535D01*
X48379Y-41408D01*
X48379Y-41269D01*
X48327Y-41141D01*
X48379Y-41014D01*
X48379Y-40875D01*
X48327Y-40747D01*
X48379Y-40620D01*
X48379Y-40482D01*
X48327Y-40354D01*
X48285Y-40312D01*
X48305Y-40212D01*
X48305Y-40212D01*
X48355Y-39964D01*
X48463Y-39802D01*
X48627Y-39693D01*
X48845Y-39649D01*
X50474Y-39649D01*
X50418Y-39783D01*
X50418Y-40002D01*
X50501Y-40204D01*
X50640Y-40343D01*
X50618Y-40343D01*
X50527Y-40381D01*
X50456Y-40451D01*
X50418Y-40543D01*
X50418Y-40643D01*
X50418Y-41171D01*
X50314Y-41171D01*
X50314Y-41171D01*
X50290Y-41175D01*
X50190Y-41195D01*
X50085Y-41266D01*
X50085Y-41266D01*
X49965Y-41385D01*
X49915Y-41385D01*
X49759Y-41450D01*
X49639Y-41569D01*
X49575Y-41726D01*
X49574Y-41895D01*
X49639Y-42051D01*
X49758Y-42171D01*
X49915Y-42235D01*
X50084Y-42236D01*
X50240Y-42171D01*
X50360Y-42052D01*
X50424Y-41895D01*
X50424Y-41845D01*
X50449Y-41821D01*
X52414Y-41821D01*
X52414Y-41821D01*
G37*
G54D23*
X52414Y-41821D02*
X52357Y-41844D01*
X52238Y-41963D01*
X52223Y-42000D01*
X51678Y-42544D01*
X51589Y-42677D01*
X51570Y-42774D01*
X51198Y-42774D01*
X51107Y-42812D01*
X51036Y-42882D01*
X50998Y-42974D01*
X50998Y-43014D01*
X49211Y-43014D01*
X49211Y-42906D01*
X49173Y-42814D01*
X49103Y-42744D01*
X49011Y-42705D01*
X48989Y-42705D01*
X49127Y-42567D01*
X49211Y-42365D01*
X49211Y-42146D01*
X49127Y-41944D01*
X48973Y-41789D01*
X48771Y-41706D01*
X48552Y-41705D01*
X48379Y-41777D01*
X48379Y-41663D01*
X48327Y-41535D01*
X48379Y-41408D01*
X48379Y-41269D01*
X48327Y-41141D01*
X48379Y-41014D01*
X48379Y-40875D01*
X48327Y-40747D01*
X48379Y-40620D01*
X48379Y-40482D01*
X48327Y-40354D01*
X48285Y-40312D01*
X48305Y-40212D01*
X48305Y-40212D01*
X48355Y-39964D01*
X48463Y-39802D01*
X48627Y-39693D01*
X48845Y-39649D01*
X50474Y-39649D01*
X50418Y-39783D01*
X50418Y-40002D01*
X50501Y-40204D01*
X50640Y-40343D01*
X50618Y-40343D01*
X50527Y-40381D01*
X50456Y-40451D01*
X50418Y-40543D01*
X50418Y-40643D01*
X50418Y-41171D01*
X50314Y-41171D01*
X50314Y-41171D01*
X50290Y-41175D01*
X50190Y-41195D01*
X50085Y-41266D01*
X50085Y-41266D01*
X49965Y-41385D01*
X49915Y-41385D01*
X49759Y-41450D01*
X49639Y-41569D01*
X49575Y-41726D01*
X49574Y-41895D01*
X49639Y-42051D01*
X49758Y-42171D01*
X49915Y-42235D01*
X50084Y-42236D01*
X50240Y-42171D01*
X50360Y-42052D01*
X50424Y-41895D01*
X50424Y-41845D01*
X50449Y-41821D01*
X52414Y-41821D01*
G54D10*
G36*
X53003Y-39893D02*
X52968Y-39929D01*
X52933Y-39893D01*
X52968Y-39858D01*
X53003Y-39893D01*
X53003Y-39893D01*
G37*
G54D23*
X53003Y-39893D02*
X52968Y-39929D01*
X52933Y-39893D01*
X52968Y-39858D01*
X53003Y-39893D01*
G54D10*
G36*
X54351Y-42747D02*
X54340Y-42743D01*
X54241Y-42743D01*
X53691Y-42743D01*
X53654Y-42758D01*
X52624Y-42758D01*
X52802Y-42580D01*
X52838Y-42565D01*
X52958Y-42445D01*
X53023Y-42289D01*
X53023Y-42120D01*
X52958Y-41964D01*
X52839Y-41844D01*
X52782Y-41821D01*
X52834Y-41821D01*
X52959Y-41796D01*
X52959Y-41796D01*
X53064Y-41725D01*
X53198Y-41592D01*
X53198Y-41592D01*
X53198Y-41592D01*
X53268Y-41486D01*
X53268Y-41486D01*
X53293Y-41362D01*
X53293Y-41346D01*
X53434Y-41205D01*
X53518Y-41003D01*
X53518Y-40784D01*
X53491Y-40718D01*
X54077Y-40718D01*
X54320Y-40961D01*
X54320Y-42164D01*
X54285Y-42199D01*
X54220Y-42356D01*
X54220Y-42525D01*
X54285Y-42681D01*
X54351Y-42747D01*
X54351Y-42747D01*
G37*
G54D23*
X54351Y-42747D02*
X54340Y-42743D01*
X54241Y-42743D01*
X53691Y-42743D01*
X53654Y-42758D01*
X52624Y-42758D01*
X52802Y-42580D01*
X52838Y-42565D01*
X52958Y-42445D01*
X53023Y-42289D01*
X53023Y-42120D01*
X52958Y-41964D01*
X52839Y-41844D01*
X52782Y-41821D01*
X52834Y-41821D01*
X52959Y-41796D01*
X52959Y-41796D01*
X53064Y-41725D01*
X53198Y-41592D01*
X53198Y-41592D01*
X53198Y-41592D01*
X53268Y-41486D01*
X53268Y-41486D01*
X53293Y-41362D01*
X53293Y-41346D01*
X53434Y-41205D01*
X53518Y-41003D01*
X53518Y-40784D01*
X53491Y-40718D01*
X54077Y-40718D01*
X54320Y-40961D01*
X54320Y-42164D01*
X54285Y-42199D01*
X54220Y-42356D01*
X54220Y-42525D01*
X54285Y-42681D01*
X54351Y-42747D01*
G54D10*
G36*
X55625Y-48398D02*
X55582Y-48616D01*
X55472Y-48780D01*
X55407Y-48824D01*
X55407Y-47115D01*
X55407Y-46643D01*
X55369Y-46551D01*
X55299Y-46481D01*
X55207Y-46442D01*
X55107Y-46442D01*
X54635Y-46442D01*
X54543Y-46480D01*
X54473Y-46551D01*
X54440Y-46629D01*
X54440Y-46406D01*
X54440Y-46264D01*
X54403Y-46226D01*
X54040Y-46226D01*
X54040Y-46489D01*
X54078Y-46526D01*
X54261Y-46526D01*
X54320Y-46526D01*
X54375Y-46503D01*
X54417Y-46461D01*
X54440Y-46406D01*
X54440Y-46629D01*
X54435Y-46642D01*
X54434Y-46742D01*
X54434Y-47152D01*
X53990Y-47596D01*
X53990Y-46489D01*
X53990Y-46226D01*
X53628Y-46226D01*
X53590Y-46264D01*
X53590Y-46406D01*
X53613Y-46461D01*
X53655Y-46503D01*
X53710Y-46526D01*
X53770Y-46526D01*
X53953Y-46526D01*
X53990Y-46489D01*
X53990Y-47596D01*
X53881Y-47706D01*
X53224Y-47706D01*
X53281Y-47569D01*
X53281Y-47391D01*
X53218Y-47239D01*
X53218Y-46394D01*
X53218Y-45654D01*
X53218Y-45594D01*
X53195Y-45539D01*
X53153Y-45497D01*
X53098Y-45474D01*
X52931Y-45474D01*
X52893Y-45511D01*
X52893Y-45999D01*
X53181Y-45999D01*
X53218Y-45961D01*
X53218Y-45654D01*
X53218Y-46394D01*
X53218Y-46086D01*
X53181Y-46049D01*
X52893Y-46049D01*
X52893Y-46536D01*
X52931Y-46574D01*
X53098Y-46574D01*
X53153Y-46551D01*
X53195Y-46509D01*
X53218Y-46454D01*
X53218Y-46394D01*
X53218Y-47239D01*
X53213Y-47227D01*
X53088Y-47101D01*
X52923Y-47033D01*
X52843Y-47033D01*
X52843Y-46536D01*
X52843Y-46049D01*
X52843Y-45999D01*
X52843Y-45511D01*
X52806Y-45474D01*
X52638Y-45474D01*
X52583Y-45497D01*
X52541Y-45539D01*
X52518Y-45594D01*
X52518Y-45654D01*
X52518Y-45961D01*
X52556Y-45999D01*
X52843Y-45999D01*
X52843Y-46049D01*
X52556Y-46049D01*
X52518Y-46086D01*
X52518Y-46394D01*
X52518Y-46454D01*
X52541Y-46509D01*
X52583Y-46551D01*
X52638Y-46574D01*
X52806Y-46574D01*
X52843Y-46536D01*
X52843Y-47033D01*
X52745Y-47033D01*
X52581Y-47101D01*
X52455Y-47226D01*
X52387Y-47391D01*
X52387Y-47568D01*
X52444Y-47706D01*
X52402Y-47706D01*
X52367Y-47671D01*
X52210Y-47606D01*
X52041Y-47606D01*
X51885Y-47670D01*
X51810Y-47745D01*
X51737Y-47671D01*
X51580Y-47606D01*
X51534Y-47606D01*
X51549Y-47569D01*
X51549Y-47391D01*
X51481Y-47227D01*
X51356Y-47101D01*
X51191Y-47033D01*
X51013Y-47033D01*
X50849Y-47101D01*
X50723Y-47226D01*
X50655Y-47391D01*
X50655Y-47568D01*
X50712Y-47706D01*
X50016Y-47706D01*
X49502Y-47191D01*
X49502Y-46800D01*
X49464Y-46708D01*
X49393Y-46638D01*
X49301Y-46600D01*
X49202Y-46600D01*
X48730Y-46600D01*
X48638Y-46638D01*
X48567Y-46708D01*
X48529Y-46800D01*
X48529Y-46899D01*
X48529Y-47372D01*
X48567Y-47464D01*
X48637Y-47534D01*
X48729Y-47572D01*
X48829Y-47572D01*
X48963Y-47572D01*
X49193Y-47802D01*
X49078Y-47802D01*
X49040Y-47840D01*
X49040Y-48163D01*
X49364Y-48163D01*
X49401Y-48126D01*
X49401Y-48011D01*
X49652Y-48261D01*
X49652Y-48261D01*
X49757Y-48331D01*
X49757Y-48331D01*
X49857Y-48351D01*
X49881Y-48356D01*
X49881Y-48356D01*
X49881Y-48356D01*
X51219Y-48356D01*
X51255Y-48391D01*
X51411Y-48456D01*
X51580Y-48456D01*
X51736Y-48392D01*
X51811Y-48317D01*
X51884Y-48391D01*
X52041Y-48456D01*
X52210Y-48456D01*
X52366Y-48392D01*
X52401Y-48356D01*
X54015Y-48356D01*
X54140Y-48331D01*
X54140Y-48331D01*
X54245Y-48261D01*
X54536Y-47970D01*
X54572Y-48006D01*
X54896Y-48006D01*
X54896Y-47682D01*
X54860Y-47646D01*
X55091Y-47415D01*
X55206Y-47415D01*
X55298Y-47377D01*
X55369Y-47307D01*
X55407Y-47215D01*
X55407Y-47115D01*
X55407Y-48824D01*
X55310Y-48889D01*
X55307Y-48889D01*
X55307Y-48297D01*
X55307Y-47765D01*
X55284Y-47710D01*
X55242Y-47668D01*
X55187Y-47645D01*
X55127Y-47645D01*
X54983Y-47645D01*
X54946Y-47682D01*
X54946Y-48006D01*
X55269Y-48006D01*
X55307Y-47968D01*
X55307Y-47765D01*
X55307Y-48297D01*
X55307Y-48093D01*
X55269Y-48056D01*
X54946Y-48056D01*
X54946Y-48380D01*
X54983Y-48417D01*
X55127Y-48417D01*
X55187Y-48417D01*
X55242Y-48394D01*
X55284Y-48352D01*
X55307Y-48297D01*
X55307Y-48889D01*
X55090Y-48933D01*
X54896Y-48933D01*
X54896Y-48380D01*
X54896Y-48056D01*
X54572Y-48056D01*
X54535Y-48093D01*
X54535Y-48297D01*
X54557Y-48352D01*
X54599Y-48394D01*
X54655Y-48417D01*
X54714Y-48417D01*
X54858Y-48417D01*
X54896Y-48380D01*
X54896Y-48933D01*
X49401Y-48933D01*
X49401Y-48454D01*
X49401Y-48251D01*
X49364Y-48213D01*
X49040Y-48213D01*
X49040Y-48537D01*
X49078Y-48575D01*
X49222Y-48575D01*
X49281Y-48575D01*
X49337Y-48552D01*
X49379Y-48510D01*
X49401Y-48454D01*
X49401Y-48933D01*
X48990Y-48933D01*
X48990Y-48537D01*
X48990Y-48213D01*
X48990Y-48163D01*
X48990Y-47840D01*
X48953Y-47802D01*
X48809Y-47802D01*
X48749Y-47802D01*
X48694Y-47825D01*
X48652Y-47867D01*
X48629Y-47923D01*
X48629Y-48126D01*
X48667Y-48163D01*
X48990Y-48163D01*
X48990Y-48213D01*
X48667Y-48213D01*
X48629Y-48251D01*
X48629Y-48454D01*
X48652Y-48510D01*
X48694Y-48552D01*
X48749Y-48575D01*
X48809Y-48575D01*
X48953Y-48575D01*
X48990Y-48537D01*
X48990Y-48933D01*
X48845Y-48933D01*
X48627Y-48889D01*
X48463Y-48780D01*
X48355Y-48618D01*
X48305Y-48370D01*
X48270Y-48285D01*
X48326Y-48229D01*
X48379Y-48101D01*
X48379Y-47962D01*
X48327Y-47834D01*
X48379Y-47707D01*
X48379Y-47568D01*
X48327Y-47440D01*
X48379Y-47313D01*
X48379Y-47175D01*
X48327Y-47047D01*
X48379Y-46920D01*
X48379Y-46781D01*
X48327Y-46653D01*
X48379Y-46526D01*
X48379Y-46387D01*
X48327Y-46259D01*
X48229Y-46161D01*
X48228Y-46161D01*
X48232Y-46155D01*
X48281Y-45909D01*
X48281Y-43793D01*
X48311Y-43805D01*
X48410Y-43805D01*
X48686Y-43805D01*
X48686Y-43805D01*
X48829Y-43834D01*
X50998Y-43834D01*
X50998Y-43873D01*
X51036Y-43965D01*
X51106Y-44036D01*
X51198Y-44074D01*
X51298Y-44074D01*
X51558Y-44074D01*
X51558Y-44304D01*
X51541Y-44287D01*
X51449Y-44249D01*
X51350Y-44249D01*
X51100Y-44249D01*
X51008Y-44287D01*
X50937Y-44357D01*
X50899Y-44449D01*
X50899Y-44519D01*
X50778Y-44640D01*
X50689Y-44773D01*
X50658Y-44930D01*
X50658Y-45096D01*
X50636Y-45086D01*
X50467Y-45086D01*
X50310Y-45151D01*
X50191Y-45270D01*
X50188Y-45276D01*
X50188Y-45168D01*
X50166Y-45113D01*
X50123Y-45070D01*
X50068Y-45048D01*
X50009Y-45048D01*
X49826Y-45048D01*
X49788Y-45085D01*
X49788Y-45298D01*
X49788Y-45348D01*
X49788Y-45398D01*
X49738Y-45398D01*
X49738Y-45348D01*
X49738Y-45085D01*
X49701Y-45048D01*
X49518Y-45048D01*
X49458Y-45048D01*
X49403Y-45070D01*
X49361Y-45113D01*
X49338Y-45168D01*
X49338Y-45310D01*
X49376Y-45348D01*
X49738Y-45348D01*
X49738Y-45398D01*
X49688Y-45398D01*
X49376Y-45398D01*
X49338Y-45435D01*
X49338Y-45577D01*
X49361Y-45632D01*
X49403Y-45675D01*
X49458Y-45697D01*
X49439Y-45697D01*
X49347Y-45735D01*
X49276Y-45806D01*
X49238Y-45898D01*
X49238Y-45997D01*
X49238Y-46347D01*
X49276Y-46439D01*
X49346Y-46509D01*
X49438Y-46547D01*
X49538Y-46548D01*
X50088Y-46548D01*
X50124Y-46533D01*
X50642Y-46533D01*
X50656Y-46565D01*
X50726Y-46636D01*
X50818Y-46674D01*
X50918Y-46674D01*
X51318Y-46674D01*
X51409Y-46636D01*
X51480Y-46566D01*
X51518Y-46474D01*
X51518Y-46473D01*
X51518Y-46473D01*
X51556Y-46565D01*
X51626Y-46636D01*
X51718Y-46674D01*
X51818Y-46674D01*
X52218Y-46674D01*
X52309Y-46636D01*
X52380Y-46566D01*
X52418Y-46474D01*
X52418Y-46374D01*
X52418Y-45574D01*
X52380Y-45482D01*
X52378Y-45480D01*
X52378Y-44818D01*
X52378Y-44818D01*
X52359Y-44724D01*
X52359Y-44724D01*
X52378Y-44630D01*
X52378Y-44630D01*
X52378Y-44074D01*
X52738Y-44074D01*
X52829Y-44036D01*
X52900Y-43966D01*
X52938Y-43874D01*
X52938Y-43774D01*
X52938Y-43578D01*
X53654Y-43578D01*
X53690Y-43593D01*
X53740Y-43593D01*
X53710Y-43593D01*
X53655Y-43616D01*
X53613Y-43658D01*
X53590Y-43713D01*
X53590Y-43855D01*
X53628Y-43893D01*
X53940Y-43893D01*
X53990Y-43893D01*
X54040Y-43893D01*
X54090Y-43893D01*
X54403Y-43893D01*
X54440Y-43855D01*
X54440Y-43713D01*
X54417Y-43658D01*
X54375Y-43616D01*
X54320Y-43593D01*
X54340Y-43593D01*
X54376Y-43578D01*
X54471Y-43578D01*
X54471Y-45027D01*
X54457Y-45041D01*
X54440Y-45041D01*
X54440Y-44123D01*
X54440Y-43980D01*
X54403Y-43943D01*
X54040Y-43943D01*
X54040Y-44205D01*
X54078Y-44243D01*
X54261Y-44243D01*
X54320Y-44243D01*
X54375Y-44220D01*
X54417Y-44178D01*
X54440Y-44123D01*
X54440Y-45041D01*
X54376Y-45041D01*
X54340Y-45026D01*
X54241Y-45026D01*
X53990Y-45026D01*
X53990Y-44205D01*
X53990Y-43943D01*
X53628Y-43943D01*
X53590Y-43980D01*
X53590Y-44123D01*
X53613Y-44178D01*
X53655Y-44220D01*
X53710Y-44243D01*
X53770Y-44243D01*
X53953Y-44243D01*
X53990Y-44205D01*
X53990Y-45026D01*
X53691Y-45026D01*
X53599Y-45064D01*
X53528Y-45134D01*
X53490Y-45226D01*
X53490Y-45326D01*
X53490Y-45676D01*
X53528Y-45768D01*
X53598Y-45838D01*
X53690Y-45876D01*
X53740Y-45876D01*
X53710Y-45876D01*
X53655Y-45899D01*
X53613Y-45941D01*
X53590Y-45997D01*
X53590Y-46139D01*
X53628Y-46176D01*
X53940Y-46176D01*
X53990Y-46176D01*
X54040Y-46176D01*
X54090Y-46176D01*
X54403Y-46176D01*
X54440Y-46139D01*
X54440Y-45997D01*
X54417Y-45941D01*
X54375Y-45899D01*
X54320Y-45876D01*
X54340Y-45876D01*
X54376Y-45861D01*
X54626Y-45861D01*
X54783Y-45830D01*
X54783Y-45830D01*
X54916Y-45741D01*
X55171Y-45486D01*
X55260Y-45353D01*
X55260Y-45353D01*
X55291Y-45196D01*
X55291Y-43385D01*
X55291Y-43385D01*
X55260Y-43228D01*
X55171Y-43095D01*
X55171Y-43095D01*
X54954Y-42878D01*
X54857Y-42813D01*
X54886Y-42801D01*
X55005Y-42682D01*
X55070Y-42525D01*
X55070Y-42356D01*
X55006Y-42200D01*
X54970Y-42164D01*
X54970Y-40826D01*
X54970Y-40826D01*
X54970Y-40826D01*
X54965Y-40802D01*
X54945Y-40702D01*
X54945Y-40702D01*
X54875Y-40596D01*
X54875Y-40596D01*
X54442Y-40163D01*
X54336Y-40093D01*
X54212Y-40068D01*
X53383Y-40068D01*
X53419Y-39976D01*
X53417Y-39797D01*
X53355Y-39649D01*
X55090Y-39649D01*
X55310Y-39693D01*
X55472Y-39801D01*
X55582Y-39965D01*
X55625Y-40183D01*
X55625Y-48398D01*
X55625Y-48398D01*
G37*
G54D23*
X55625Y-48398D02*
X55582Y-48616D01*
X55472Y-48780D01*
X55407Y-48824D01*
X55407Y-47115D01*
X55407Y-46643D01*
X55369Y-46551D01*
X55299Y-46481D01*
X55207Y-46442D01*
X55107Y-46442D01*
X54635Y-46442D01*
X54543Y-46480D01*
X54473Y-46551D01*
X54440Y-46629D01*
X54440Y-46406D01*
X54440Y-46264D01*
X54403Y-46226D01*
X54040Y-46226D01*
X54040Y-46489D01*
X54078Y-46526D01*
X54261Y-46526D01*
X54320Y-46526D01*
X54375Y-46503D01*
X54417Y-46461D01*
X54440Y-46406D01*
X54440Y-46629D01*
X54435Y-46642D01*
X54434Y-46742D01*
X54434Y-47152D01*
X53990Y-47596D01*
X53990Y-46489D01*
X53990Y-46226D01*
X53628Y-46226D01*
X53590Y-46264D01*
X53590Y-46406D01*
X53613Y-46461D01*
X53655Y-46503D01*
X53710Y-46526D01*
X53770Y-46526D01*
X53953Y-46526D01*
X53990Y-46489D01*
X53990Y-47596D01*
X53881Y-47706D01*
X53224Y-47706D01*
X53281Y-47569D01*
X53281Y-47391D01*
X53218Y-47239D01*
X53218Y-46394D01*
X53218Y-45654D01*
X53218Y-45594D01*
X53195Y-45539D01*
X53153Y-45497D01*
X53098Y-45474D01*
X52931Y-45474D01*
X52893Y-45511D01*
X52893Y-45999D01*
X53181Y-45999D01*
X53218Y-45961D01*
X53218Y-45654D01*
X53218Y-46394D01*
X53218Y-46086D01*
X53181Y-46049D01*
X52893Y-46049D01*
X52893Y-46536D01*
X52931Y-46574D01*
X53098Y-46574D01*
X53153Y-46551D01*
X53195Y-46509D01*
X53218Y-46454D01*
X53218Y-46394D01*
X53218Y-47239D01*
X53213Y-47227D01*
X53088Y-47101D01*
X52923Y-47033D01*
X52843Y-47033D01*
X52843Y-46536D01*
X52843Y-46049D01*
X52843Y-45999D01*
X52843Y-45511D01*
X52806Y-45474D01*
X52638Y-45474D01*
X52583Y-45497D01*
X52541Y-45539D01*
X52518Y-45594D01*
X52518Y-45654D01*
X52518Y-45961D01*
X52556Y-45999D01*
X52843Y-45999D01*
X52843Y-46049D01*
X52556Y-46049D01*
X52518Y-46086D01*
X52518Y-46394D01*
X52518Y-46454D01*
X52541Y-46509D01*
X52583Y-46551D01*
X52638Y-46574D01*
X52806Y-46574D01*
X52843Y-46536D01*
X52843Y-47033D01*
X52745Y-47033D01*
X52581Y-47101D01*
X52455Y-47226D01*
X52387Y-47391D01*
X52387Y-47568D01*
X52444Y-47706D01*
X52402Y-47706D01*
X52367Y-47671D01*
X52210Y-47606D01*
X52041Y-47606D01*
X51885Y-47670D01*
X51810Y-47745D01*
X51737Y-47671D01*
X51580Y-47606D01*
X51534Y-47606D01*
X51549Y-47569D01*
X51549Y-47391D01*
X51481Y-47227D01*
X51356Y-47101D01*
X51191Y-47033D01*
X51013Y-47033D01*
X50849Y-47101D01*
X50723Y-47226D01*
X50655Y-47391D01*
X50655Y-47568D01*
X50712Y-47706D01*
X50016Y-47706D01*
X49502Y-47191D01*
X49502Y-46800D01*
X49464Y-46708D01*
X49393Y-46638D01*
X49301Y-46600D01*
X49202Y-46600D01*
X48730Y-46600D01*
X48638Y-46638D01*
X48567Y-46708D01*
X48529Y-46800D01*
X48529Y-46899D01*
X48529Y-47372D01*
X48567Y-47464D01*
X48637Y-47534D01*
X48729Y-47572D01*
X48829Y-47572D01*
X48963Y-47572D01*
X49193Y-47802D01*
X49078Y-47802D01*
X49040Y-47840D01*
X49040Y-48163D01*
X49364Y-48163D01*
X49401Y-48126D01*
X49401Y-48011D01*
X49652Y-48261D01*
X49652Y-48261D01*
X49757Y-48331D01*
X49757Y-48331D01*
X49857Y-48351D01*
X49881Y-48356D01*
X49881Y-48356D01*
X49881Y-48356D01*
X51219Y-48356D01*
X51255Y-48391D01*
X51411Y-48456D01*
X51580Y-48456D01*
X51736Y-48392D01*
X51811Y-48317D01*
X51884Y-48391D01*
X52041Y-48456D01*
X52210Y-48456D01*
X52366Y-48392D01*
X52401Y-48356D01*
X54015Y-48356D01*
X54140Y-48331D01*
X54140Y-48331D01*
X54245Y-48261D01*
X54536Y-47970D01*
X54572Y-48006D01*
X54896Y-48006D01*
X54896Y-47682D01*
X54860Y-47646D01*
X55091Y-47415D01*
X55206Y-47415D01*
X55298Y-47377D01*
X55369Y-47307D01*
X55407Y-47215D01*
X55407Y-47115D01*
X55407Y-48824D01*
X55310Y-48889D01*
X55307Y-48889D01*
X55307Y-48297D01*
X55307Y-47765D01*
X55284Y-47710D01*
X55242Y-47668D01*
X55187Y-47645D01*
X55127Y-47645D01*
X54983Y-47645D01*
X54946Y-47682D01*
X54946Y-48006D01*
X55269Y-48006D01*
X55307Y-47968D01*
X55307Y-47765D01*
X55307Y-48297D01*
X55307Y-48093D01*
X55269Y-48056D01*
X54946Y-48056D01*
X54946Y-48380D01*
X54983Y-48417D01*
X55127Y-48417D01*
X55187Y-48417D01*
X55242Y-48394D01*
X55284Y-48352D01*
X55307Y-48297D01*
X55307Y-48889D01*
X55090Y-48933D01*
X54896Y-48933D01*
X54896Y-48380D01*
X54896Y-48056D01*
X54572Y-48056D01*
X54535Y-48093D01*
X54535Y-48297D01*
X54557Y-48352D01*
X54599Y-48394D01*
X54655Y-48417D01*
X54714Y-48417D01*
X54858Y-48417D01*
X54896Y-48380D01*
X54896Y-48933D01*
X49401Y-48933D01*
X49401Y-48454D01*
X49401Y-48251D01*
X49364Y-48213D01*
X49040Y-48213D01*
X49040Y-48537D01*
X49078Y-48575D01*
X49222Y-48575D01*
X49281Y-48575D01*
X49337Y-48552D01*
X49379Y-48510D01*
X49401Y-48454D01*
X49401Y-48933D01*
X48990Y-48933D01*
X48990Y-48537D01*
X48990Y-48213D01*
X48990Y-48163D01*
X48990Y-47840D01*
X48953Y-47802D01*
X48809Y-47802D01*
X48749Y-47802D01*
X48694Y-47825D01*
X48652Y-47867D01*
X48629Y-47923D01*
X48629Y-48126D01*
X48667Y-48163D01*
X48990Y-48163D01*
X48990Y-48213D01*
X48667Y-48213D01*
X48629Y-48251D01*
X48629Y-48454D01*
X48652Y-48510D01*
X48694Y-48552D01*
X48749Y-48575D01*
X48809Y-48575D01*
X48953Y-48575D01*
X48990Y-48537D01*
X48990Y-48933D01*
X48845Y-48933D01*
X48627Y-48889D01*
X48463Y-48780D01*
X48355Y-48618D01*
X48305Y-48370D01*
X48270Y-48285D01*
X48326Y-48229D01*
X48379Y-48101D01*
X48379Y-47962D01*
X48327Y-47834D01*
X48379Y-47707D01*
X48379Y-47568D01*
X48327Y-47440D01*
X48379Y-47313D01*
X48379Y-47175D01*
X48327Y-47047D01*
X48379Y-46920D01*
X48379Y-46781D01*
X48327Y-46653D01*
X48379Y-46526D01*
X48379Y-46387D01*
X48327Y-46259D01*
X48229Y-46161D01*
X48228Y-46161D01*
X48232Y-46155D01*
X48281Y-45909D01*
X48281Y-43793D01*
X48311Y-43805D01*
X48410Y-43805D01*
X48686Y-43805D01*
X48686Y-43805D01*
X48829Y-43834D01*
X50998Y-43834D01*
X50998Y-43873D01*
X51036Y-43965D01*
X51106Y-44036D01*
X51198Y-44074D01*
X51298Y-44074D01*
X51558Y-44074D01*
X51558Y-44304D01*
X51541Y-44287D01*
X51449Y-44249D01*
X51350Y-44249D01*
X51100Y-44249D01*
X51008Y-44287D01*
X50937Y-44357D01*
X50899Y-44449D01*
X50899Y-44519D01*
X50778Y-44640D01*
X50689Y-44773D01*
X50658Y-44930D01*
X50658Y-45096D01*
X50636Y-45086D01*
X50467Y-45086D01*
X50310Y-45151D01*
X50191Y-45270D01*
X50188Y-45276D01*
X50188Y-45168D01*
X50166Y-45113D01*
X50123Y-45070D01*
X50068Y-45048D01*
X50009Y-45048D01*
X49826Y-45048D01*
X49788Y-45085D01*
X49788Y-45298D01*
X49788Y-45348D01*
X49788Y-45398D01*
X49738Y-45398D01*
X49738Y-45348D01*
X49738Y-45085D01*
X49701Y-45048D01*
X49518Y-45048D01*
X49458Y-45048D01*
X49403Y-45070D01*
X49361Y-45113D01*
X49338Y-45168D01*
X49338Y-45310D01*
X49376Y-45348D01*
X49738Y-45348D01*
X49738Y-45398D01*
X49688Y-45398D01*
X49376Y-45398D01*
X49338Y-45435D01*
X49338Y-45577D01*
X49361Y-45632D01*
X49403Y-45675D01*
X49458Y-45697D01*
X49439Y-45697D01*
X49347Y-45735D01*
X49276Y-45806D01*
X49238Y-45898D01*
X49238Y-45997D01*
X49238Y-46347D01*
X49276Y-46439D01*
X49346Y-46509D01*
X49438Y-46547D01*
X49538Y-46548D01*
X50088Y-46548D01*
X50124Y-46533D01*
X50642Y-46533D01*
X50656Y-46565D01*
X50726Y-46636D01*
X50818Y-46674D01*
X50918Y-46674D01*
X51318Y-46674D01*
X51409Y-46636D01*
X51480Y-46566D01*
X51518Y-46474D01*
X51518Y-46473D01*
X51518Y-46473D01*
X51556Y-46565D01*
X51626Y-46636D01*
X51718Y-46674D01*
X51818Y-46674D01*
X52218Y-46674D01*
X52309Y-46636D01*
X52380Y-46566D01*
X52418Y-46474D01*
X52418Y-46374D01*
X52418Y-45574D01*
X52380Y-45482D01*
X52378Y-45480D01*
X52378Y-44818D01*
X52378Y-44818D01*
X52359Y-44724D01*
X52359Y-44724D01*
X52378Y-44630D01*
X52378Y-44630D01*
X52378Y-44074D01*
X52738Y-44074D01*
X52829Y-44036D01*
X52900Y-43966D01*
X52938Y-43874D01*
X52938Y-43774D01*
X52938Y-43578D01*
X53654Y-43578D01*
X53690Y-43593D01*
X53740Y-43593D01*
X53710Y-43593D01*
X53655Y-43616D01*
X53613Y-43658D01*
X53590Y-43713D01*
X53590Y-43855D01*
X53628Y-43893D01*
X53940Y-43893D01*
X53990Y-43893D01*
X54040Y-43893D01*
X54090Y-43893D01*
X54403Y-43893D01*
X54440Y-43855D01*
X54440Y-43713D01*
X54417Y-43658D01*
X54375Y-43616D01*
X54320Y-43593D01*
X54340Y-43593D01*
X54376Y-43578D01*
X54471Y-43578D01*
X54471Y-45027D01*
X54457Y-45041D01*
X54440Y-45041D01*
X54440Y-44123D01*
X54440Y-43980D01*
X54403Y-43943D01*
X54040Y-43943D01*
X54040Y-44205D01*
X54078Y-44243D01*
X54261Y-44243D01*
X54320Y-44243D01*
X54375Y-44220D01*
X54417Y-44178D01*
X54440Y-44123D01*
X54440Y-45041D01*
X54376Y-45041D01*
X54340Y-45026D01*
X54241Y-45026D01*
X53990Y-45026D01*
X53990Y-44205D01*
X53990Y-43943D01*
X53628Y-43943D01*
X53590Y-43980D01*
X53590Y-44123D01*
X53613Y-44178D01*
X53655Y-44220D01*
X53710Y-44243D01*
X53770Y-44243D01*
X53953Y-44243D01*
X53990Y-44205D01*
X53990Y-45026D01*
X53691Y-45026D01*
X53599Y-45064D01*
X53528Y-45134D01*
X53490Y-45226D01*
X53490Y-45326D01*
X53490Y-45676D01*
X53528Y-45768D01*
X53598Y-45838D01*
X53690Y-45876D01*
X53740Y-45876D01*
X53710Y-45876D01*
X53655Y-45899D01*
X53613Y-45941D01*
X53590Y-45997D01*
X53590Y-46139D01*
X53628Y-46176D01*
X53940Y-46176D01*
X53990Y-46176D01*
X54040Y-46176D01*
X54090Y-46176D01*
X54403Y-46176D01*
X54440Y-46139D01*
X54440Y-45997D01*
X54417Y-45941D01*
X54375Y-45899D01*
X54320Y-45876D01*
X54340Y-45876D01*
X54376Y-45861D01*
X54626Y-45861D01*
X54783Y-45830D01*
X54783Y-45830D01*
X54916Y-45741D01*
X55171Y-45486D01*
X55260Y-45353D01*
X55260Y-45353D01*
X55291Y-45196D01*
X55291Y-43385D01*
X55291Y-43385D01*
X55260Y-43228D01*
X55171Y-43095D01*
X55171Y-43095D01*
X54954Y-42878D01*
X54857Y-42813D01*
X54886Y-42801D01*
X55005Y-42682D01*
X55070Y-42525D01*
X55070Y-42356D01*
X55006Y-42200D01*
X54970Y-42164D01*
X54970Y-40826D01*
X54970Y-40826D01*
X54970Y-40826D01*
X54965Y-40802D01*
X54945Y-40702D01*
X54945Y-40702D01*
X54875Y-40596D01*
X54875Y-40596D01*
X54442Y-40163D01*
X54336Y-40093D01*
X54212Y-40068D01*
X53383Y-40068D01*
X53419Y-39976D01*
X53417Y-39797D01*
X53355Y-39649D01*
X55090Y-39649D01*
X55310Y-39693D01*
X55472Y-39801D01*
X55582Y-39965D01*
X55625Y-40183D01*
X55625Y-48398D01*
M02*
