G04 (created by PCBNEW (2012-nov-02)-testing) date Sun 20 Jan 2013 14:43:11 CET*
%MOIN*%
G04 Gerber Fmt 3.4, Leading zero omitted, Abs format*
%FSLAX34Y34*%
G01*
G70*
G90*
G04 APERTURE LIST*
%ADD10C,0.006*%
%ADD11C,0.00590551*%
%ADD12C,0.008*%
%ADD13C,0.0039*%
%ADD14C,0.005*%
G04 APERTURE END LIST*
G54D10*
G54D11*
X48031Y-48425D02*
G75*
G03X47637Y-48031I-393J0D01*
G74*
G01*
X47637Y-48031D02*
G75*
G03X47244Y-48425I0J-393D01*
G74*
G01*
X47244Y-40157D02*
G75*
G03X47637Y-40551I393J0D01*
G74*
G01*
X47637Y-40551D02*
G75*
G03X48031Y-40157I0J393D01*
G74*
G01*
X39370Y-48425D02*
G75*
G03X40157Y-49212I787J0D01*
G74*
G01*
X46456Y-39370D02*
X40157Y-39370D01*
X40157Y-49212D02*
X46456Y-49212D01*
X39370Y-40157D02*
X39370Y-48425D01*
X46456Y-49212D02*
G75*
G03X47244Y-48425I0J787D01*
G74*
G01*
X47244Y-40157D02*
G75*
G03X46456Y-39370I-787J0D01*
G74*
G01*
X40157Y-39370D02*
G75*
G03X39370Y-40157I0J-787D01*
G74*
G01*
X48031Y-48425D02*
G75*
G03X48818Y-49212I787J0D01*
G74*
G01*
X55118Y-39370D02*
X48818Y-39370D01*
X55905Y-48425D02*
X55905Y-40157D01*
X48818Y-49212D02*
X55118Y-49212D01*
X55118Y-49212D02*
G75*
G03X55905Y-48425I0J787D01*
G74*
G01*
X55905Y-40157D02*
G75*
G03X55118Y-39370I-787J0D01*
G74*
G01*
X48818Y-39370D02*
G75*
G03X48031Y-40157I0J-787D01*
G74*
G01*
G54D12*
X44707Y-45324D02*
X44707Y-46524D01*
X44707Y-46524D02*
X41907Y-46524D01*
X41907Y-46524D02*
X41907Y-45324D01*
X44707Y-44124D02*
X44707Y-43824D01*
X44707Y-43824D02*
X44107Y-42924D01*
X44107Y-42924D02*
X42507Y-42924D01*
X42507Y-42924D02*
X41907Y-43824D01*
X41907Y-43824D02*
X41907Y-44124D01*
G54D13*
X40852Y-46398D02*
G75*
G03X40852Y-46398I-50J0D01*
G74*
G01*
X40802Y-45948D02*
X40802Y-46348D01*
X40802Y-46348D02*
X41402Y-46348D01*
X41402Y-46348D02*
X41402Y-45948D01*
X41402Y-45548D02*
X41402Y-45148D01*
X41402Y-45148D02*
X40802Y-45148D01*
X40802Y-45148D02*
X40802Y-45548D01*
X45704Y-45176D02*
G75*
G03X45704Y-45176I-50J0D01*
G74*
G01*
X45654Y-45626D02*
X45654Y-45226D01*
X45654Y-45226D02*
X45054Y-45226D01*
X45054Y-45226D02*
X45054Y-45626D01*
X45054Y-46026D02*
X45054Y-46426D01*
X45054Y-46426D02*
X45654Y-46426D01*
X45654Y-46426D02*
X45654Y-46026D01*
X45704Y-42893D02*
G75*
G03X45704Y-42893I-50J0D01*
G74*
G01*
X45654Y-43343D02*
X45654Y-42943D01*
X45654Y-42943D02*
X45054Y-42943D01*
X45054Y-42943D02*
X45054Y-43343D01*
X45054Y-43743D02*
X45054Y-44143D01*
X45054Y-44143D02*
X45654Y-44143D01*
X45654Y-44143D02*
X45654Y-43743D01*
G54D11*
X40669Y-48503D02*
X40669Y-48228D01*
X40669Y-48228D02*
X40787Y-48228D01*
X40787Y-48228D02*
X40787Y-47047D01*
X40787Y-47047D02*
X40669Y-47047D01*
X40669Y-47047D02*
X40669Y-46771D01*
X40669Y-46771D02*
X40039Y-46771D01*
X40039Y-46771D02*
X40039Y-47047D01*
X40039Y-47047D02*
X39921Y-47047D01*
X39921Y-47047D02*
X39921Y-48228D01*
X39921Y-48228D02*
X40039Y-48228D01*
X40039Y-48228D02*
X40039Y-48503D01*
X40039Y-48503D02*
X40669Y-48503D01*
X46574Y-48346D02*
X46574Y-48070D01*
X46574Y-48070D02*
X46692Y-48070D01*
X46692Y-48070D02*
X46692Y-46889D01*
X46692Y-46889D02*
X46574Y-46889D01*
X46574Y-46889D02*
X46574Y-46614D01*
X46574Y-46614D02*
X45944Y-46614D01*
X45944Y-46614D02*
X45944Y-46889D01*
X45944Y-46889D02*
X45826Y-46889D01*
X45826Y-46889D02*
X45826Y-48070D01*
X45826Y-48070D02*
X45944Y-48070D01*
X45944Y-48070D02*
X45944Y-48346D01*
X45944Y-48346D02*
X46574Y-48346D01*
G54D14*
X42463Y-44974D02*
X43363Y-44974D01*
X43363Y-44974D02*
X43363Y-44474D01*
X43363Y-44474D02*
X42463Y-44474D01*
X42463Y-44474D02*
X42463Y-44974D01*
G54D12*
X53368Y-45324D02*
X53368Y-46524D01*
X53368Y-46524D02*
X50568Y-46524D01*
X50568Y-46524D02*
X50568Y-45324D01*
X53368Y-44124D02*
X53368Y-43824D01*
X53368Y-43824D02*
X52768Y-42924D01*
X52768Y-42924D02*
X51168Y-42924D01*
X51168Y-42924D02*
X50568Y-43824D01*
X50568Y-43824D02*
X50568Y-44124D01*
G54D13*
X49513Y-46398D02*
G75*
G03X49513Y-46398I-50J0D01*
G74*
G01*
X49463Y-45948D02*
X49463Y-46348D01*
X49463Y-46348D02*
X50063Y-46348D01*
X50063Y-46348D02*
X50063Y-45948D01*
X50063Y-45548D02*
X50063Y-45148D01*
X50063Y-45148D02*
X49463Y-45148D01*
X49463Y-45148D02*
X49463Y-45548D01*
X54365Y-45176D02*
G75*
G03X54365Y-45176I-50J0D01*
G74*
G01*
X54315Y-45626D02*
X54315Y-45226D01*
X54315Y-45226D02*
X53715Y-45226D01*
X53715Y-45226D02*
X53715Y-45626D01*
X53715Y-46026D02*
X53715Y-46426D01*
X53715Y-46426D02*
X54315Y-46426D01*
X54315Y-46426D02*
X54315Y-46026D01*
X54365Y-42893D02*
G75*
G03X54365Y-42893I-50J0D01*
G74*
G01*
X54315Y-43343D02*
X54315Y-42943D01*
X54315Y-42943D02*
X53715Y-42943D01*
X53715Y-42943D02*
X53715Y-43343D01*
X53715Y-43743D02*
X53715Y-44143D01*
X53715Y-44143D02*
X54315Y-44143D01*
X54315Y-44143D02*
X54315Y-43743D01*
G54D11*
X49330Y-48503D02*
X49330Y-48228D01*
X49330Y-48228D02*
X49448Y-48228D01*
X49448Y-48228D02*
X49448Y-47047D01*
X49448Y-47047D02*
X49330Y-47047D01*
X49330Y-47047D02*
X49330Y-46771D01*
X49330Y-46771D02*
X48700Y-46771D01*
X48700Y-46771D02*
X48700Y-47047D01*
X48700Y-47047D02*
X48582Y-47047D01*
X48582Y-47047D02*
X48582Y-48228D01*
X48582Y-48228D02*
X48700Y-48228D01*
X48700Y-48228D02*
X48700Y-48503D01*
X48700Y-48503D02*
X49330Y-48503D01*
X55236Y-48346D02*
X55236Y-48070D01*
X55236Y-48070D02*
X55354Y-48070D01*
X55354Y-48070D02*
X55354Y-46889D01*
X55354Y-46889D02*
X55236Y-46889D01*
X55236Y-46889D02*
X55236Y-46614D01*
X55236Y-46614D02*
X54606Y-46614D01*
X54606Y-46614D02*
X54606Y-46889D01*
X54606Y-46889D02*
X54488Y-46889D01*
X54488Y-46889D02*
X54488Y-48070D01*
X54488Y-48070D02*
X54606Y-48070D01*
X54606Y-48070D02*
X54606Y-48346D01*
X54606Y-48346D02*
X55236Y-48346D01*
G54D14*
X51124Y-44974D02*
X52024Y-44974D01*
X52024Y-44974D02*
X52024Y-44474D01*
X52024Y-44474D02*
X51124Y-44474D01*
X51124Y-44474D02*
X51124Y-44974D01*
G54D10*
X42054Y-42959D02*
X42054Y-43218D01*
X42039Y-43248D01*
X42024Y-43263D01*
X41993Y-43279D01*
X41932Y-43279D01*
X41902Y-43263D01*
X41887Y-43248D01*
X41871Y-43218D01*
X41871Y-42959D01*
X41551Y-43279D02*
X41734Y-43279D01*
X41643Y-43279D02*
X41643Y-42959D01*
X41673Y-43004D01*
X41704Y-43035D01*
X41734Y-43050D01*
X40571Y-45694D02*
X40586Y-45679D01*
X40601Y-45633D01*
X40601Y-45603D01*
X40586Y-45557D01*
X40556Y-45527D01*
X40525Y-45511D01*
X40464Y-45496D01*
X40419Y-45496D01*
X40358Y-45511D01*
X40327Y-45527D01*
X40297Y-45557D01*
X40281Y-45603D01*
X40281Y-45633D01*
X40297Y-45679D01*
X40312Y-45694D01*
X40601Y-45999D02*
X40601Y-45816D01*
X40601Y-45908D02*
X40281Y-45908D01*
X40327Y-45877D01*
X40358Y-45847D01*
X40373Y-45816D01*
X46162Y-45773D02*
X46177Y-45758D01*
X46192Y-45712D01*
X46192Y-45682D01*
X46177Y-45636D01*
X46146Y-45605D01*
X46116Y-45590D01*
X46055Y-45575D01*
X46009Y-45575D01*
X45948Y-45590D01*
X45918Y-45605D01*
X45887Y-45636D01*
X45872Y-45682D01*
X45872Y-45712D01*
X45887Y-45758D01*
X45902Y-45773D01*
X45902Y-45895D02*
X45887Y-45910D01*
X45872Y-45941D01*
X45872Y-46017D01*
X45887Y-46047D01*
X45902Y-46062D01*
X45933Y-46078D01*
X45963Y-46078D01*
X46009Y-46062D01*
X46192Y-45880D01*
X46192Y-46078D01*
X46162Y-43489D02*
X46177Y-43474D01*
X46192Y-43429D01*
X46192Y-43398D01*
X46177Y-43352D01*
X46146Y-43322D01*
X46116Y-43307D01*
X46055Y-43291D01*
X46009Y-43291D01*
X45948Y-43307D01*
X45918Y-43322D01*
X45887Y-43352D01*
X45872Y-43398D01*
X45872Y-43429D01*
X45887Y-43474D01*
X45902Y-43489D01*
X45872Y-43596D02*
X45872Y-43794D01*
X45994Y-43688D01*
X45994Y-43733D01*
X46009Y-43764D01*
X46024Y-43779D01*
X46055Y-43794D01*
X46131Y-43794D01*
X46162Y-43779D01*
X46177Y-43764D01*
X46192Y-43733D01*
X46192Y-43642D01*
X46177Y-43611D01*
X46162Y-43596D01*
X41271Y-47401D02*
X40951Y-47401D01*
X40951Y-47477D01*
X40966Y-47523D01*
X40996Y-47553D01*
X41027Y-47569D01*
X41088Y-47584D01*
X41134Y-47584D01*
X41195Y-47569D01*
X41225Y-47553D01*
X41256Y-47523D01*
X41271Y-47477D01*
X41271Y-47401D01*
X40981Y-47706D02*
X40966Y-47721D01*
X40951Y-47752D01*
X40951Y-47828D01*
X40966Y-47858D01*
X40981Y-47873D01*
X41012Y-47889D01*
X41042Y-47889D01*
X41088Y-47873D01*
X41271Y-47691D01*
X41271Y-47889D01*
X45601Y-47244D02*
X45281Y-47244D01*
X45281Y-47320D01*
X45297Y-47366D01*
X45327Y-47396D01*
X45358Y-47411D01*
X45419Y-47426D01*
X45464Y-47426D01*
X45525Y-47411D01*
X45556Y-47396D01*
X45586Y-47366D01*
X45601Y-47320D01*
X45601Y-47244D01*
X45281Y-47533D02*
X45281Y-47731D01*
X45403Y-47625D01*
X45403Y-47670D01*
X45419Y-47701D01*
X45434Y-47716D01*
X45464Y-47731D01*
X45541Y-47731D01*
X45571Y-47716D01*
X45586Y-47701D01*
X45601Y-47670D01*
X45601Y-47579D01*
X45586Y-47548D01*
X45571Y-47533D01*
X43911Y-44853D02*
X44018Y-44701D01*
X44094Y-44853D02*
X44094Y-44533D01*
X43972Y-44533D01*
X43942Y-44549D01*
X43926Y-44564D01*
X43911Y-44594D01*
X43911Y-44640D01*
X43926Y-44671D01*
X43942Y-44686D01*
X43972Y-44701D01*
X44094Y-44701D01*
X43622Y-44533D02*
X43774Y-44533D01*
X43789Y-44686D01*
X43774Y-44671D01*
X43743Y-44655D01*
X43667Y-44655D01*
X43637Y-44671D01*
X43622Y-44686D01*
X43606Y-44716D01*
X43606Y-44792D01*
X43622Y-44823D01*
X43637Y-44838D01*
X43667Y-44853D01*
X43743Y-44853D01*
X43774Y-44838D01*
X43789Y-44823D01*
X50716Y-42959D02*
X50716Y-43218D01*
X50701Y-43248D01*
X50685Y-43263D01*
X50655Y-43279D01*
X50594Y-43279D01*
X50563Y-43263D01*
X50548Y-43248D01*
X50533Y-43218D01*
X50533Y-42959D01*
X50213Y-43279D02*
X50396Y-43279D01*
X50304Y-43279D02*
X50304Y-42959D01*
X50335Y-43004D01*
X50365Y-43035D01*
X50396Y-43050D01*
X49232Y-45694D02*
X49248Y-45679D01*
X49263Y-45633D01*
X49263Y-45603D01*
X49248Y-45557D01*
X49217Y-45527D01*
X49187Y-45511D01*
X49126Y-45496D01*
X49080Y-45496D01*
X49019Y-45511D01*
X48989Y-45527D01*
X48958Y-45557D01*
X48943Y-45603D01*
X48943Y-45633D01*
X48958Y-45679D01*
X48973Y-45694D01*
X49263Y-45999D02*
X49263Y-45816D01*
X49263Y-45908D02*
X48943Y-45908D01*
X48989Y-45877D01*
X49019Y-45847D01*
X49034Y-45816D01*
X54823Y-45773D02*
X54838Y-45758D01*
X54853Y-45712D01*
X54853Y-45682D01*
X54838Y-45636D01*
X54808Y-45605D01*
X54777Y-45590D01*
X54716Y-45575D01*
X54671Y-45575D01*
X54610Y-45590D01*
X54579Y-45605D01*
X54549Y-45636D01*
X54533Y-45682D01*
X54533Y-45712D01*
X54549Y-45758D01*
X54564Y-45773D01*
X54564Y-45895D02*
X54549Y-45910D01*
X54533Y-45941D01*
X54533Y-46017D01*
X54549Y-46047D01*
X54564Y-46062D01*
X54594Y-46078D01*
X54625Y-46078D01*
X54671Y-46062D01*
X54853Y-45880D01*
X54853Y-46078D01*
X54823Y-43489D02*
X54838Y-43474D01*
X54853Y-43429D01*
X54853Y-43398D01*
X54838Y-43352D01*
X54808Y-43322D01*
X54777Y-43307D01*
X54716Y-43291D01*
X54671Y-43291D01*
X54610Y-43307D01*
X54579Y-43322D01*
X54549Y-43352D01*
X54533Y-43398D01*
X54533Y-43429D01*
X54549Y-43474D01*
X54564Y-43489D01*
X54533Y-43596D02*
X54533Y-43794D01*
X54655Y-43688D01*
X54655Y-43733D01*
X54671Y-43764D01*
X54686Y-43779D01*
X54716Y-43794D01*
X54792Y-43794D01*
X54823Y-43779D01*
X54838Y-43764D01*
X54853Y-43733D01*
X54853Y-43642D01*
X54838Y-43611D01*
X54823Y-43596D01*
X49932Y-47401D02*
X49612Y-47401D01*
X49612Y-47477D01*
X49627Y-47523D01*
X49658Y-47553D01*
X49688Y-47569D01*
X49749Y-47584D01*
X49795Y-47584D01*
X49856Y-47569D01*
X49886Y-47553D01*
X49917Y-47523D01*
X49932Y-47477D01*
X49932Y-47401D01*
X49643Y-47706D02*
X49627Y-47721D01*
X49612Y-47752D01*
X49612Y-47828D01*
X49627Y-47858D01*
X49643Y-47873D01*
X49673Y-47889D01*
X49704Y-47889D01*
X49749Y-47873D01*
X49932Y-47691D01*
X49932Y-47889D01*
X54263Y-47244D02*
X53943Y-47244D01*
X53943Y-47320D01*
X53958Y-47366D01*
X53989Y-47396D01*
X54019Y-47411D01*
X54080Y-47426D01*
X54126Y-47426D01*
X54187Y-47411D01*
X54217Y-47396D01*
X54248Y-47366D01*
X54263Y-47320D01*
X54263Y-47244D01*
X53943Y-47533D02*
X53943Y-47731D01*
X54065Y-47625D01*
X54065Y-47670D01*
X54080Y-47701D01*
X54095Y-47716D01*
X54126Y-47731D01*
X54202Y-47731D01*
X54232Y-47716D01*
X54248Y-47701D01*
X54263Y-47670D01*
X54263Y-47579D01*
X54248Y-47548D01*
X54232Y-47533D01*
X52573Y-44853D02*
X52679Y-44701D01*
X52755Y-44853D02*
X52755Y-44533D01*
X52633Y-44533D01*
X52603Y-44549D01*
X52588Y-44564D01*
X52573Y-44594D01*
X52573Y-44640D01*
X52588Y-44671D01*
X52603Y-44686D01*
X52633Y-44701D01*
X52755Y-44701D01*
X52283Y-44533D02*
X52435Y-44533D01*
X52451Y-44686D01*
X52435Y-44671D01*
X52405Y-44655D01*
X52329Y-44655D01*
X52298Y-44671D01*
X52283Y-44686D01*
X52268Y-44716D01*
X52268Y-44792D01*
X52283Y-44823D01*
X52298Y-44838D01*
X52329Y-44853D01*
X52405Y-44853D01*
X52435Y-44838D01*
X52451Y-44823D01*
M02*
