G04 (created by PCBNEW (2012-nov-02)-testing) date Sun 20 Jan 2013 14:43:11 CET*
%MOIN*%
G04 Gerber Fmt 3.4, Leading zero omitted, Abs format*
%FSLAX34Y34*%
G01*
G70*
G90*
G04 APERTURE LIST*
%ADD10C,0.006*%
%ADD11C,0.00590551*%
%ADD12R,0.045X0.025*%
%ADD13R,0.025X0.045*%
%ADD14R,0.06X0.06*%
%ADD15C,0.06*%
%ADD16R,0.0787X0.0984*%
%ADD17R,0.0197X0.0886*%
%ADD18C,0.0394*%
%ADD19R,0.0866142X0.019685*%
%ADD20R,0.0472X0.0472*%
%ADD21C,0.035*%
%ADD22C,0.015*%
%ADD23C,0.032*%
%ADD24C,0.02*%
%ADD25C,0.01*%
G04 APERTURE END LIST*
G54D10*
G54D11*
X48031Y-48425D02*
G75*
G03X47637Y-48031I-393J0D01*
G74*
G01*
X47637Y-48031D02*
G75*
G03X47244Y-48425I0J-393D01*
G74*
G01*
X47244Y-40157D02*
G75*
G03X47637Y-40551I393J0D01*
G74*
G01*
X47637Y-40551D02*
G75*
G03X48031Y-40157I0J393D01*
G74*
G01*
X39370Y-48425D02*
G75*
G03X40157Y-49212I787J0D01*
G74*
G01*
X46456Y-39370D02*
X40157Y-39370D01*
X40157Y-49212D02*
X46456Y-49212D01*
X39370Y-40157D02*
X39370Y-48425D01*
X46456Y-49212D02*
G75*
G03X47244Y-48425I0J787D01*
G74*
G01*
X47244Y-40157D02*
G75*
G03X46456Y-39370I-787J0D01*
G74*
G01*
X40157Y-39370D02*
G75*
G03X39370Y-40157I0J-787D01*
G74*
G01*
X48031Y-48425D02*
G75*
G03X48818Y-49212I787J0D01*
G74*
G01*
X55118Y-39370D02*
X48818Y-39370D01*
X55905Y-48425D02*
X55905Y-40157D01*
X48818Y-49212D02*
X55118Y-49212D01*
X55118Y-49212D02*
G75*
G03X55905Y-48425I0J787D01*
G74*
G01*
X55905Y-40157D02*
G75*
G03X55118Y-39370I-787J0D01*
G74*
G01*
X48818Y-39370D02*
G75*
G03X48031Y-40157I0J-787D01*
G74*
G01*
G54D12*
X42519Y-45260D03*
X42519Y-44660D03*
X43464Y-45260D03*
X43464Y-44660D03*
G54D13*
X41323Y-45196D03*
X40723Y-45196D03*
X45605Y-40787D03*
X46205Y-40787D03*
G54D14*
X42307Y-40893D03*
G54D15*
X42307Y-39893D03*
X43307Y-40893D03*
X43307Y-39893D03*
X44307Y-40893D03*
X44307Y-39893D03*
G54D14*
X40000Y-43255D03*
G54D15*
X40000Y-42255D03*
G54D16*
X45059Y-48610D03*
X45059Y-46464D03*
X41555Y-48610D03*
X41555Y-46464D03*
G54D17*
X43307Y-46415D03*
X43622Y-46415D03*
X43937Y-46415D03*
X42992Y-46415D03*
X42677Y-46415D03*
G54D18*
X44173Y-47480D03*
X42441Y-47480D03*
G54D19*
X44921Y-42242D03*
X44921Y-42742D03*
X44921Y-43242D03*
X44921Y-43742D03*
X41692Y-42242D03*
X41692Y-42742D03*
X41692Y-43242D03*
X41692Y-43742D03*
G54D13*
X41008Y-40787D03*
X40408Y-40787D03*
G54D20*
X46318Y-39921D03*
X45492Y-39921D03*
X41121Y-39921D03*
X40295Y-39921D03*
G54D12*
X51181Y-45260D03*
X51181Y-44660D03*
X52125Y-45260D03*
X52125Y-44660D03*
G54D13*
X49985Y-45196D03*
X49385Y-45196D03*
X54266Y-40787D03*
X54866Y-40787D03*
G54D14*
X50968Y-40893D03*
G54D15*
X50968Y-39893D03*
X51968Y-40893D03*
X51968Y-39893D03*
X52968Y-40893D03*
X52968Y-39893D03*
G54D14*
X48661Y-43255D03*
G54D15*
X48661Y-42255D03*
G54D16*
X53720Y-48610D03*
X53720Y-46464D03*
X50216Y-48610D03*
X50216Y-46464D03*
G54D17*
X51968Y-46415D03*
X52283Y-46415D03*
X52598Y-46415D03*
X51653Y-46415D03*
X51338Y-46415D03*
G54D18*
X52834Y-47480D03*
X51102Y-47480D03*
G54D19*
X53582Y-42242D03*
X53582Y-42742D03*
X53582Y-43242D03*
X53582Y-43742D03*
X50354Y-42242D03*
X50354Y-42742D03*
X50354Y-43242D03*
X50354Y-43742D03*
G54D13*
X49670Y-40787D03*
X49070Y-40787D03*
G54D20*
X54979Y-39921D03*
X54153Y-39921D03*
X49783Y-39921D03*
X48957Y-39921D03*
G54D21*
X41889Y-45511D03*
X50551Y-45511D03*
X45984Y-42440D03*
X54645Y-42440D03*
X41338Y-41811D03*
X50000Y-41811D03*
X45000Y-41653D03*
X39842Y-41259D03*
X41692Y-44251D03*
X40275Y-46220D03*
X46141Y-46259D03*
X40787Y-48622D03*
X45984Y-48622D03*
X53661Y-41653D03*
X48503Y-41259D03*
X50354Y-44251D03*
X48937Y-46220D03*
X54803Y-46259D03*
X49448Y-48622D03*
X54645Y-48622D03*
X42834Y-48031D03*
X51496Y-48031D03*
X43464Y-48031D03*
X52125Y-48031D03*
X43937Y-42204D03*
X52598Y-42204D03*
G54D22*
X41889Y-45511D02*
X42047Y-45511D01*
X42677Y-45905D02*
X42677Y-46415D01*
X42519Y-45748D02*
X42677Y-45905D01*
X42283Y-45748D02*
X42519Y-45748D01*
X42047Y-45511D02*
X42283Y-45748D01*
X50551Y-45511D02*
X50708Y-45511D01*
X51338Y-45905D02*
X51338Y-46415D01*
X51181Y-45748D02*
X51338Y-45905D01*
X50944Y-45748D02*
X51181Y-45748D01*
X50708Y-45511D02*
X50944Y-45748D01*
X44921Y-43242D02*
X43557Y-43242D01*
X42716Y-41303D02*
X42307Y-40893D01*
X42716Y-42401D02*
X42716Y-41303D01*
X43557Y-43242D02*
X42716Y-42401D01*
X53582Y-43242D02*
X52218Y-43242D01*
X51377Y-41303D02*
X50968Y-40893D01*
X51377Y-42401D02*
X51377Y-41303D01*
X52218Y-43242D02*
X51377Y-42401D01*
X44921Y-43742D02*
X45864Y-43742D01*
X45984Y-43622D02*
X45984Y-42440D01*
X45864Y-43742D02*
X45984Y-43622D01*
X53582Y-43742D02*
X54525Y-43742D01*
X54645Y-43622D02*
X54645Y-42440D01*
X54525Y-43742D02*
X54645Y-43622D01*
X41692Y-42242D02*
X41061Y-42242D01*
X41062Y-41811D02*
X41338Y-41811D01*
X40944Y-41929D02*
X41062Y-41811D01*
X40944Y-42125D02*
X40944Y-41929D01*
X41061Y-42242D02*
X40944Y-42125D01*
X50354Y-42242D02*
X49722Y-42242D01*
X49724Y-41811D02*
X50000Y-41811D01*
X49606Y-41929D02*
X49724Y-41811D01*
X49606Y-42125D02*
X49606Y-41929D01*
X49722Y-42242D02*
X49606Y-42125D01*
X44921Y-42742D02*
X43765Y-42742D01*
X43307Y-42283D02*
X43307Y-40893D01*
X43765Y-42742D02*
X43307Y-42283D01*
X53582Y-42742D02*
X52427Y-42742D01*
X51968Y-42283D02*
X51968Y-40893D01*
X52427Y-42742D02*
X51968Y-42283D01*
G54D23*
X41181Y-40787D02*
X41181Y-41074D01*
X41181Y-41074D02*
X40000Y-42255D01*
X41008Y-40787D02*
X41181Y-40787D01*
X42074Y-39893D02*
X42307Y-39893D01*
X41181Y-40787D02*
X42074Y-39893D01*
X49842Y-40787D02*
X49842Y-41074D01*
X49842Y-41074D02*
X48661Y-42255D01*
X49670Y-40787D02*
X49842Y-40787D01*
X50736Y-39893D02*
X50968Y-39893D01*
X49842Y-40787D02*
X50736Y-39893D01*
G54D22*
X40295Y-39921D02*
X40078Y-39921D01*
X39842Y-40157D02*
X39842Y-41259D01*
X40078Y-39921D02*
X39842Y-40157D01*
X41692Y-43742D02*
X41692Y-44251D01*
X41555Y-46464D02*
X40519Y-46464D01*
X40519Y-46464D02*
X40275Y-46220D01*
X45059Y-46464D02*
X45937Y-46464D01*
X45937Y-46464D02*
X46141Y-46259D01*
X41555Y-48610D02*
X40799Y-48610D01*
X40799Y-48610D02*
X40787Y-48622D01*
X45059Y-48610D02*
X45972Y-48610D01*
X45972Y-48610D02*
X45984Y-48622D01*
X43937Y-46415D02*
X43937Y-45708D01*
X43937Y-45708D02*
X43937Y-45708D01*
X43937Y-46415D02*
X43937Y-47047D01*
X43937Y-47047D02*
X43937Y-47047D01*
X48957Y-39921D02*
X48740Y-39921D01*
X48503Y-40157D02*
X48503Y-41259D01*
X48740Y-39921D02*
X48503Y-40157D01*
X50354Y-43742D02*
X50354Y-44251D01*
X50216Y-46464D02*
X49180Y-46464D01*
X49180Y-46464D02*
X48937Y-46220D01*
X53720Y-46464D02*
X54598Y-46464D01*
X54598Y-46464D02*
X54803Y-46259D01*
X50216Y-48610D02*
X49460Y-48610D01*
X49460Y-48610D02*
X49448Y-48622D01*
X53720Y-48610D02*
X54633Y-48610D01*
X54633Y-48610D02*
X54645Y-48622D01*
X52598Y-46415D02*
X52598Y-45708D01*
X52598Y-45708D02*
X52598Y-45708D01*
X52598Y-46415D02*
X52598Y-47047D01*
X52598Y-47047D02*
X52598Y-47047D01*
X41121Y-39921D02*
X41121Y-40098D01*
X40408Y-40614D02*
X40408Y-40787D01*
X40669Y-40354D02*
X40408Y-40614D01*
X40866Y-40354D02*
X40669Y-40354D01*
X41121Y-40098D02*
X40866Y-40354D01*
X42519Y-44660D02*
X41274Y-44660D01*
X41116Y-42742D02*
X41692Y-42742D01*
X40944Y-42913D02*
X41116Y-42742D01*
X40944Y-44330D02*
X40944Y-42913D01*
X41274Y-44660D02*
X40944Y-44330D01*
X51181Y-44660D02*
X49936Y-44660D01*
X49777Y-42742D02*
X50354Y-42742D01*
X49606Y-42913D02*
X49777Y-42742D01*
X49606Y-44330D02*
X49606Y-42913D01*
X49936Y-44660D02*
X49606Y-44330D01*
X43464Y-44660D02*
X43464Y-43543D01*
X43163Y-43242D02*
X41692Y-43242D01*
X43464Y-43543D02*
X43163Y-43242D01*
X52125Y-44660D02*
X52125Y-43543D01*
X51824Y-43242D02*
X50354Y-43242D01*
X52125Y-43543D02*
X51824Y-43242D01*
X49783Y-39921D02*
X49783Y-40098D01*
X49070Y-40614D02*
X49070Y-40787D01*
X49330Y-40354D02*
X49070Y-40614D01*
X49527Y-40354D02*
X49330Y-40354D01*
X49783Y-40098D02*
X49527Y-40354D01*
X42992Y-47874D02*
X42992Y-46415D01*
X42834Y-48031D02*
X42992Y-47874D01*
X42519Y-45260D02*
X42229Y-45260D01*
X41520Y-45000D02*
X41323Y-45196D01*
X41968Y-45000D02*
X41520Y-45000D01*
X42229Y-45260D02*
X41968Y-45000D01*
X42992Y-46415D02*
X42992Y-45826D01*
X42519Y-45354D02*
X42519Y-45260D01*
X42992Y-45826D02*
X42519Y-45354D01*
X51653Y-47874D02*
X51653Y-46415D01*
X51496Y-48031D02*
X51653Y-47874D01*
X51181Y-45260D02*
X50890Y-45260D01*
X50181Y-45000D02*
X49985Y-45196D01*
X50629Y-45000D02*
X50181Y-45000D01*
X50890Y-45260D02*
X50629Y-45000D01*
X51653Y-46415D02*
X51653Y-45826D01*
X51181Y-45354D02*
X51181Y-45260D01*
X51653Y-45826D02*
X51181Y-45354D01*
X43307Y-47874D02*
X43307Y-46415D01*
X43464Y-48031D02*
X43307Y-47874D01*
X43307Y-46415D02*
X43307Y-45748D01*
X43464Y-45590D02*
X43464Y-45260D01*
X43307Y-45748D02*
X43464Y-45590D01*
X51968Y-47874D02*
X51968Y-46415D01*
X52125Y-48031D02*
X51968Y-47874D01*
X51968Y-46415D02*
X51968Y-45748D01*
X52125Y-45590D02*
X52125Y-45260D01*
X51968Y-45748D02*
X52125Y-45590D01*
X46205Y-40787D02*
X46205Y-40723D01*
X46318Y-40610D02*
X46318Y-39921D01*
X46205Y-40723D02*
X46318Y-40610D01*
X54866Y-40787D02*
X54866Y-40723D01*
X54979Y-40610D02*
X54979Y-39921D01*
X54866Y-40723D02*
X54979Y-40610D01*
X44921Y-42242D02*
X43974Y-42242D01*
X43974Y-42242D02*
X43937Y-42204D01*
G54D24*
X44921Y-42242D02*
X45238Y-42242D01*
X45605Y-41874D02*
X45605Y-40787D01*
X45238Y-42242D02*
X45605Y-41874D01*
G54D23*
X40723Y-45196D02*
X40236Y-45196D01*
X40236Y-45196D02*
X40000Y-44960D01*
X40000Y-44960D02*
X40000Y-43255D01*
G54D22*
X53582Y-42242D02*
X52635Y-42242D01*
X52635Y-42242D02*
X52598Y-42204D01*
G54D24*
X53582Y-42242D02*
X53899Y-42242D01*
X54266Y-41874D02*
X54266Y-40787D01*
X53899Y-42242D02*
X54266Y-41874D01*
G54D23*
X49385Y-45196D02*
X48897Y-45196D01*
X48897Y-45196D02*
X48661Y-44960D01*
X48661Y-44960D02*
X48661Y-43255D01*
G54D10*
G36*
X40413Y-41262D02*
X39970Y-41705D01*
X39891Y-41705D01*
X39688Y-41789D01*
X39649Y-41828D01*
X39649Y-40185D01*
X39693Y-39964D01*
X39801Y-39802D01*
X39909Y-39730D01*
X39909Y-39858D01*
X39947Y-39896D01*
X40220Y-39896D01*
X40270Y-39896D01*
X40320Y-39896D01*
X40320Y-39946D01*
X40270Y-39946D01*
X40220Y-39946D01*
X39947Y-39946D01*
X39909Y-39983D01*
X39909Y-40127D01*
X39909Y-40187D01*
X39932Y-40242D01*
X39974Y-40284D01*
X40029Y-40307D01*
X40233Y-40307D01*
X40256Y-40307D01*
X40251Y-40312D01*
X40234Y-40312D01*
X40142Y-40350D01*
X40071Y-40420D01*
X40033Y-40512D01*
X40033Y-40611D01*
X40033Y-41061D01*
X40071Y-41153D01*
X40141Y-41224D01*
X40233Y-41262D01*
X40333Y-41262D01*
X40413Y-41262D01*
X40413Y-41262D01*
G37*
G54D25*
X40413Y-41262D02*
X39970Y-41705D01*
X39891Y-41705D01*
X39688Y-41789D01*
X39649Y-41828D01*
X39649Y-40185D01*
X39693Y-39964D01*
X39801Y-39802D01*
X39909Y-39730D01*
X39909Y-39858D01*
X39947Y-39896D01*
X40220Y-39896D01*
X40270Y-39896D01*
X40320Y-39896D01*
X40320Y-39946D01*
X40270Y-39946D01*
X40220Y-39946D01*
X39947Y-39946D01*
X39909Y-39983D01*
X39909Y-40127D01*
X39909Y-40187D01*
X39932Y-40242D01*
X39974Y-40284D01*
X40029Y-40307D01*
X40233Y-40307D01*
X40256Y-40307D01*
X40251Y-40312D01*
X40234Y-40312D01*
X40142Y-40350D01*
X40071Y-40420D01*
X40033Y-40512D01*
X40033Y-40611D01*
X40033Y-41061D01*
X40071Y-41153D01*
X40141Y-41224D01*
X40233Y-41262D01*
X40333Y-41262D01*
X40413Y-41262D01*
G54D10*
G36*
X43139Y-44306D02*
X43098Y-44323D01*
X43027Y-44393D01*
X42992Y-44479D01*
X42956Y-44394D01*
X42886Y-44323D01*
X42794Y-44285D01*
X42695Y-44285D01*
X42276Y-44285D01*
X42276Y-43870D01*
X42275Y-43804D01*
X42238Y-43767D01*
X41717Y-43767D01*
X41717Y-43953D01*
X41755Y-43990D01*
X42096Y-43990D01*
X42155Y-43990D01*
X42211Y-43967D01*
X42253Y-43925D01*
X42276Y-43870D01*
X42276Y-44285D01*
X42245Y-44285D01*
X42153Y-44323D01*
X42141Y-44335D01*
X41409Y-44335D01*
X41269Y-44196D01*
X41269Y-43990D01*
X41289Y-43990D01*
X41630Y-43990D01*
X41667Y-43953D01*
X41667Y-43817D01*
X41667Y-43767D01*
X41667Y-43717D01*
X41717Y-43717D01*
X41767Y-43717D01*
X42238Y-43717D01*
X42275Y-43679D01*
X42276Y-43613D01*
X42256Y-43567D01*
X43028Y-43567D01*
X43139Y-43677D01*
X43139Y-44306D01*
X43139Y-44306D01*
G37*
G54D25*
X43139Y-44306D02*
X43098Y-44323D01*
X43027Y-44393D01*
X42992Y-44479D01*
X42956Y-44394D01*
X42886Y-44323D01*
X42794Y-44285D01*
X42695Y-44285D01*
X42276Y-44285D01*
X42276Y-43870D01*
X42275Y-43804D01*
X42238Y-43767D01*
X41717Y-43767D01*
X41717Y-43953D01*
X41755Y-43990D01*
X42096Y-43990D01*
X42155Y-43990D01*
X42211Y-43967D01*
X42253Y-43925D01*
X42276Y-43870D01*
X42276Y-44285D01*
X42245Y-44285D01*
X42153Y-44323D01*
X42141Y-44335D01*
X41409Y-44335D01*
X41269Y-44196D01*
X41269Y-43990D01*
X41289Y-43990D01*
X41630Y-43990D01*
X41667Y-43953D01*
X41667Y-43817D01*
X41667Y-43767D01*
X41667Y-43717D01*
X41717Y-43717D01*
X41767Y-43717D01*
X42238Y-43717D01*
X42275Y-43679D01*
X42276Y-43613D01*
X42256Y-43567D01*
X43028Y-43567D01*
X43139Y-43677D01*
X43139Y-44306D01*
G54D10*
G36*
X45930Y-40358D02*
X45905Y-40383D01*
X45872Y-40350D01*
X45780Y-40312D01*
X45681Y-40312D01*
X45467Y-40312D01*
X45467Y-40269D01*
X45467Y-39946D01*
X45144Y-39946D01*
X45106Y-39983D01*
X45106Y-40127D01*
X45106Y-40187D01*
X45129Y-40242D01*
X45171Y-40284D01*
X45226Y-40307D01*
X45430Y-40307D01*
X45467Y-40269D01*
X45467Y-40312D01*
X45431Y-40312D01*
X45339Y-40350D01*
X45268Y-40420D01*
X45230Y-40512D01*
X45230Y-40611D01*
X45230Y-41061D01*
X45255Y-41122D01*
X45255Y-41729D01*
X45093Y-41892D01*
X44921Y-41892D01*
X44913Y-41893D01*
X44438Y-41893D01*
X44381Y-41917D01*
X44250Y-41917D01*
X44178Y-41844D01*
X44021Y-41779D01*
X43852Y-41779D01*
X43696Y-41844D01*
X43632Y-41908D01*
X43632Y-41346D01*
X43773Y-41205D01*
X43807Y-41123D01*
X43840Y-41204D01*
X43995Y-41359D01*
X44197Y-41443D01*
X44416Y-41443D01*
X44618Y-41360D01*
X44773Y-41205D01*
X44856Y-41003D01*
X44857Y-40784D01*
X44773Y-40582D01*
X44619Y-40427D01*
X44416Y-40343D01*
X44310Y-40343D01*
X44403Y-40342D01*
X44556Y-40279D01*
X44586Y-40208D01*
X44307Y-39929D01*
X44027Y-40208D01*
X44058Y-40279D01*
X44220Y-40343D01*
X44198Y-40343D01*
X43995Y-40427D01*
X43841Y-40581D01*
X43807Y-40663D01*
X43773Y-40582D01*
X43619Y-40427D01*
X43537Y-40393D01*
X43618Y-40360D01*
X43773Y-40205D01*
X43856Y-40003D01*
X43857Y-39896D01*
X43858Y-39990D01*
X43921Y-40142D01*
X43992Y-40173D01*
X44236Y-39929D01*
X44236Y-39929D01*
X44271Y-39893D01*
X44307Y-39858D01*
X44377Y-39929D01*
X44622Y-40173D01*
X44692Y-40142D01*
X44758Y-39976D01*
X44755Y-39797D01*
X44694Y-39649D01*
X45108Y-39649D01*
X45106Y-39655D01*
X45106Y-39714D01*
X45106Y-39858D01*
X45144Y-39896D01*
X45417Y-39896D01*
X45467Y-39896D01*
X45517Y-39896D01*
X45517Y-39946D01*
X45517Y-39996D01*
X45517Y-40269D01*
X45555Y-40307D01*
X45758Y-40307D01*
X45813Y-40284D01*
X45849Y-40248D01*
X45870Y-40298D01*
X45930Y-40358D01*
X45930Y-40358D01*
G37*
G54D25*
X45930Y-40358D02*
X45905Y-40383D01*
X45872Y-40350D01*
X45780Y-40312D01*
X45681Y-40312D01*
X45467Y-40312D01*
X45467Y-40269D01*
X45467Y-39946D01*
X45144Y-39946D01*
X45106Y-39983D01*
X45106Y-40127D01*
X45106Y-40187D01*
X45129Y-40242D01*
X45171Y-40284D01*
X45226Y-40307D01*
X45430Y-40307D01*
X45467Y-40269D01*
X45467Y-40312D01*
X45431Y-40312D01*
X45339Y-40350D01*
X45268Y-40420D01*
X45230Y-40512D01*
X45230Y-40611D01*
X45230Y-41061D01*
X45255Y-41122D01*
X45255Y-41729D01*
X45093Y-41892D01*
X44921Y-41892D01*
X44913Y-41893D01*
X44438Y-41893D01*
X44381Y-41917D01*
X44250Y-41917D01*
X44178Y-41844D01*
X44021Y-41779D01*
X43852Y-41779D01*
X43696Y-41844D01*
X43632Y-41908D01*
X43632Y-41346D01*
X43773Y-41205D01*
X43807Y-41123D01*
X43840Y-41204D01*
X43995Y-41359D01*
X44197Y-41443D01*
X44416Y-41443D01*
X44618Y-41360D01*
X44773Y-41205D01*
X44856Y-41003D01*
X44857Y-40784D01*
X44773Y-40582D01*
X44619Y-40427D01*
X44416Y-40343D01*
X44310Y-40343D01*
X44403Y-40342D01*
X44556Y-40279D01*
X44586Y-40208D01*
X44307Y-39929D01*
X44027Y-40208D01*
X44058Y-40279D01*
X44220Y-40343D01*
X44198Y-40343D01*
X43995Y-40427D01*
X43841Y-40581D01*
X43807Y-40663D01*
X43773Y-40582D01*
X43619Y-40427D01*
X43537Y-40393D01*
X43618Y-40360D01*
X43773Y-40205D01*
X43856Y-40003D01*
X43857Y-39896D01*
X43858Y-39990D01*
X43921Y-40142D01*
X43992Y-40173D01*
X44236Y-39929D01*
X44236Y-39929D01*
X44271Y-39893D01*
X44307Y-39858D01*
X44377Y-39929D01*
X44622Y-40173D01*
X44692Y-40142D01*
X44758Y-39976D01*
X44755Y-39797D01*
X44694Y-39649D01*
X45108Y-39649D01*
X45106Y-39655D01*
X45106Y-39714D01*
X45106Y-39858D01*
X45144Y-39896D01*
X45417Y-39896D01*
X45467Y-39896D01*
X45517Y-39896D01*
X45517Y-39946D01*
X45517Y-39996D01*
X45517Y-40269D01*
X45555Y-40307D01*
X45758Y-40307D01*
X45813Y-40284D01*
X45849Y-40248D01*
X45870Y-40298D01*
X45930Y-40358D01*
G54D10*
G36*
X47046Y-46161D02*
X46948Y-46259D01*
X46895Y-46387D01*
X46895Y-46525D01*
X46948Y-46653D01*
X46895Y-46780D01*
X46895Y-46919D01*
X46948Y-47047D01*
X46895Y-47174D01*
X46895Y-47313D01*
X46948Y-47441D01*
X46895Y-47568D01*
X46895Y-47706D01*
X46948Y-47834D01*
X46895Y-47961D01*
X46895Y-48100D01*
X46948Y-48228D01*
X47005Y-48285D01*
X46970Y-48370D01*
X46921Y-48616D01*
X46811Y-48780D01*
X46649Y-48889D01*
X46429Y-48933D01*
X45602Y-48933D01*
X45602Y-48148D01*
X45602Y-46926D01*
X45602Y-46002D01*
X45602Y-45942D01*
X45579Y-45887D01*
X45537Y-45845D01*
X45482Y-45822D01*
X45121Y-45822D01*
X45084Y-45859D01*
X45084Y-46439D01*
X45565Y-46439D01*
X45602Y-46401D01*
X45602Y-46002D01*
X45602Y-46926D01*
X45602Y-46526D01*
X45565Y-46489D01*
X45084Y-46489D01*
X45084Y-47068D01*
X45121Y-47106D01*
X45482Y-47106D01*
X45537Y-47083D01*
X45579Y-47041D01*
X45602Y-46986D01*
X45602Y-46926D01*
X45602Y-48148D01*
X45602Y-48088D01*
X45579Y-48033D01*
X45537Y-47991D01*
X45482Y-47968D01*
X45121Y-47968D01*
X45084Y-48005D01*
X45084Y-48585D01*
X45565Y-48585D01*
X45602Y-48547D01*
X45602Y-48148D01*
X45602Y-48933D01*
X45602Y-48933D01*
X45602Y-48672D01*
X45565Y-48635D01*
X45134Y-48635D01*
X45084Y-48635D01*
X45034Y-48635D01*
X45034Y-48585D01*
X45034Y-48005D01*
X45034Y-47068D01*
X45034Y-46489D01*
X45034Y-46439D01*
X45034Y-45859D01*
X44996Y-45822D01*
X44635Y-45822D01*
X44580Y-45845D01*
X44538Y-45887D01*
X44515Y-45942D01*
X44515Y-46002D01*
X44515Y-46401D01*
X44553Y-46439D01*
X45034Y-46439D01*
X45034Y-46489D01*
X44553Y-46489D01*
X44515Y-46526D01*
X44515Y-46926D01*
X44515Y-46986D01*
X44538Y-47041D01*
X44580Y-47083D01*
X44635Y-47106D01*
X44996Y-47106D01*
X45034Y-47068D01*
X45034Y-48005D01*
X44996Y-47968D01*
X44635Y-47968D01*
X44620Y-47974D01*
X44620Y-47391D01*
X44552Y-47227D01*
X44426Y-47101D01*
X44262Y-47033D01*
X44084Y-47033D01*
X43920Y-47101D01*
X43794Y-47226D01*
X43726Y-47391D01*
X43726Y-47568D01*
X43793Y-47733D01*
X43919Y-47859D01*
X44083Y-47927D01*
X44261Y-47927D01*
X44425Y-47859D01*
X44551Y-47733D01*
X44620Y-47569D01*
X44620Y-47391D01*
X44620Y-47974D01*
X44580Y-47991D01*
X44538Y-48033D01*
X44515Y-48088D01*
X44515Y-48148D01*
X44515Y-48547D01*
X44553Y-48585D01*
X45034Y-48585D01*
X45034Y-48635D01*
X44984Y-48635D01*
X44553Y-48635D01*
X44515Y-48672D01*
X44515Y-48933D01*
X42098Y-48933D01*
X42098Y-48148D01*
X42098Y-48088D01*
X42075Y-48033D01*
X42033Y-47991D01*
X41978Y-47968D01*
X41617Y-47968D01*
X41580Y-48005D01*
X41580Y-48585D01*
X42061Y-48585D01*
X42098Y-48547D01*
X42098Y-48148D01*
X42098Y-48933D01*
X42098Y-48933D01*
X42098Y-48672D01*
X42061Y-48635D01*
X41630Y-48635D01*
X41580Y-48635D01*
X41530Y-48635D01*
X41530Y-48585D01*
X41530Y-48005D01*
X41530Y-47068D01*
X41530Y-46489D01*
X41530Y-46439D01*
X41530Y-45859D01*
X41492Y-45822D01*
X41131Y-45822D01*
X41076Y-45845D01*
X41034Y-45887D01*
X41011Y-45942D01*
X41011Y-46002D01*
X41011Y-46401D01*
X41049Y-46439D01*
X41530Y-46439D01*
X41530Y-46489D01*
X41049Y-46489D01*
X41011Y-46526D01*
X41011Y-46926D01*
X41011Y-46986D01*
X41034Y-47041D01*
X41076Y-47083D01*
X41131Y-47106D01*
X41492Y-47106D01*
X41530Y-47068D01*
X41530Y-48005D01*
X41492Y-47968D01*
X41131Y-47968D01*
X41076Y-47991D01*
X41034Y-48033D01*
X41011Y-48088D01*
X41011Y-48148D01*
X41011Y-48547D01*
X41049Y-48585D01*
X41530Y-48585D01*
X41530Y-48635D01*
X41480Y-48635D01*
X41049Y-48635D01*
X41011Y-48672D01*
X41011Y-48933D01*
X40183Y-48933D01*
X39965Y-48889D01*
X39801Y-48780D01*
X39693Y-48618D01*
X39649Y-48397D01*
X39649Y-45160D01*
X39710Y-45250D01*
X39946Y-45486D01*
X40079Y-45575D01*
X40079Y-45575D01*
X40236Y-45606D01*
X40430Y-45606D01*
X40456Y-45633D01*
X40548Y-45671D01*
X40648Y-45671D01*
X40898Y-45671D01*
X40990Y-45633D01*
X41023Y-45600D01*
X41056Y-45633D01*
X41148Y-45671D01*
X41248Y-45671D01*
X41496Y-45671D01*
X41529Y-45752D01*
X41608Y-45831D01*
X41580Y-45859D01*
X41580Y-46439D01*
X42061Y-46439D01*
X42098Y-46401D01*
X42098Y-46007D01*
X42159Y-46048D01*
X42159Y-46048D01*
X42283Y-46073D01*
X42328Y-46073D01*
X42328Y-46907D01*
X42366Y-46999D01*
X42400Y-47033D01*
X42352Y-47033D01*
X42188Y-47101D01*
X42098Y-47190D01*
X42098Y-46926D01*
X42098Y-46526D01*
X42061Y-46489D01*
X41580Y-46489D01*
X41580Y-47068D01*
X41617Y-47106D01*
X41978Y-47106D01*
X42033Y-47083D01*
X42075Y-47041D01*
X42098Y-46986D01*
X42098Y-46926D01*
X42098Y-47190D01*
X42062Y-47226D01*
X41994Y-47391D01*
X41994Y-47568D01*
X42061Y-47733D01*
X42187Y-47859D01*
X42351Y-47927D01*
X42417Y-47927D01*
X42409Y-47946D01*
X42409Y-48115D01*
X42474Y-48271D01*
X42593Y-48391D01*
X42749Y-48456D01*
X42918Y-48456D01*
X43075Y-48392D01*
X43149Y-48317D01*
X43223Y-48391D01*
X43379Y-48456D01*
X43548Y-48456D01*
X43704Y-48392D01*
X43824Y-48272D01*
X43889Y-48116D01*
X43889Y-47947D01*
X43825Y-47791D01*
X43705Y-47671D01*
X43632Y-47640D01*
X43632Y-47108D01*
X43770Y-47108D01*
X43862Y-47070D01*
X43932Y-47000D01*
X43962Y-46928D01*
X43962Y-46970D01*
X43999Y-47008D01*
X44065Y-47008D01*
X44120Y-46985D01*
X44162Y-46943D01*
X44185Y-46888D01*
X44185Y-46828D01*
X44185Y-46477D01*
X44148Y-46440D01*
X43970Y-46440D01*
X43970Y-46390D01*
X44148Y-46390D01*
X44185Y-46352D01*
X44185Y-46002D01*
X44185Y-45942D01*
X44162Y-45887D01*
X44120Y-45845D01*
X44065Y-45822D01*
X43999Y-45822D01*
X43962Y-45859D01*
X43962Y-45902D01*
X43932Y-45830D01*
X43862Y-45760D01*
X43770Y-45722D01*
X43759Y-45722D01*
X43764Y-45714D01*
X43764Y-45714D01*
X43784Y-45616D01*
X43830Y-45597D01*
X43901Y-45527D01*
X43939Y-45435D01*
X43939Y-45336D01*
X43939Y-45086D01*
X43901Y-44994D01*
X43868Y-44960D01*
X43901Y-44927D01*
X43939Y-44835D01*
X43939Y-44736D01*
X43939Y-44486D01*
X43901Y-44394D01*
X43831Y-44323D01*
X43789Y-44306D01*
X43789Y-43567D01*
X44249Y-43567D01*
X44238Y-43593D01*
X44238Y-43693D01*
X44238Y-43890D01*
X44276Y-43981D01*
X44346Y-44052D01*
X44438Y-44090D01*
X44537Y-44090D01*
X45403Y-44090D01*
X45460Y-44067D01*
X45864Y-44067D01*
X45988Y-44042D01*
X45988Y-44042D01*
X46093Y-43971D01*
X46214Y-43851D01*
X46284Y-43746D01*
X46284Y-43746D01*
X46309Y-43622D01*
X46309Y-42717D01*
X46344Y-42682D01*
X46409Y-42525D01*
X46409Y-42356D01*
X46344Y-42200D01*
X46225Y-42080D01*
X46069Y-42016D01*
X45924Y-42015D01*
X45928Y-42008D01*
X45955Y-41874D01*
X45955Y-41231D01*
X46030Y-41262D01*
X46130Y-41262D01*
X46380Y-41262D01*
X46471Y-41224D01*
X46542Y-41154D01*
X46580Y-41062D01*
X46580Y-40962D01*
X46580Y-40792D01*
X46580Y-40792D01*
X46618Y-40734D01*
X46618Y-40734D01*
X46643Y-40610D01*
X46643Y-40390D01*
X46695Y-40369D01*
X46766Y-40299D01*
X46804Y-40207D01*
X46804Y-40107D01*
X46804Y-39797D01*
X46811Y-39801D01*
X46921Y-39965D01*
X46969Y-40210D01*
X46969Y-40211D01*
X46989Y-40312D01*
X46948Y-40353D01*
X46895Y-40481D01*
X46895Y-40620D01*
X46948Y-40748D01*
X46895Y-40875D01*
X46895Y-41013D01*
X46948Y-41141D01*
X46895Y-41268D01*
X46895Y-41407D01*
X46948Y-41535D01*
X46895Y-41662D01*
X46895Y-41801D01*
X46948Y-41929D01*
X46895Y-42056D01*
X46895Y-42194D01*
X46948Y-42323D01*
X47046Y-42421D01*
X47046Y-42421D01*
X47043Y-42426D01*
X46994Y-42673D01*
X46994Y-45909D01*
X47043Y-46155D01*
X47046Y-46161D01*
X47046Y-46161D01*
G37*
G54D25*
X47046Y-46161D02*
X46948Y-46259D01*
X46895Y-46387D01*
X46895Y-46525D01*
X46948Y-46653D01*
X46895Y-46780D01*
X46895Y-46919D01*
X46948Y-47047D01*
X46895Y-47174D01*
X46895Y-47313D01*
X46948Y-47441D01*
X46895Y-47568D01*
X46895Y-47706D01*
X46948Y-47834D01*
X46895Y-47961D01*
X46895Y-48100D01*
X46948Y-48228D01*
X47005Y-48285D01*
X46970Y-48370D01*
X46921Y-48616D01*
X46811Y-48780D01*
X46649Y-48889D01*
X46429Y-48933D01*
X45602Y-48933D01*
X45602Y-48148D01*
X45602Y-46926D01*
X45602Y-46002D01*
X45602Y-45942D01*
X45579Y-45887D01*
X45537Y-45845D01*
X45482Y-45822D01*
X45121Y-45822D01*
X45084Y-45859D01*
X45084Y-46439D01*
X45565Y-46439D01*
X45602Y-46401D01*
X45602Y-46002D01*
X45602Y-46926D01*
X45602Y-46526D01*
X45565Y-46489D01*
X45084Y-46489D01*
X45084Y-47068D01*
X45121Y-47106D01*
X45482Y-47106D01*
X45537Y-47083D01*
X45579Y-47041D01*
X45602Y-46986D01*
X45602Y-46926D01*
X45602Y-48148D01*
X45602Y-48088D01*
X45579Y-48033D01*
X45537Y-47991D01*
X45482Y-47968D01*
X45121Y-47968D01*
X45084Y-48005D01*
X45084Y-48585D01*
X45565Y-48585D01*
X45602Y-48547D01*
X45602Y-48148D01*
X45602Y-48933D01*
X45602Y-48933D01*
X45602Y-48672D01*
X45565Y-48635D01*
X45134Y-48635D01*
X45084Y-48635D01*
X45034Y-48635D01*
X45034Y-48585D01*
X45034Y-48005D01*
X45034Y-47068D01*
X45034Y-46489D01*
X45034Y-46439D01*
X45034Y-45859D01*
X44996Y-45822D01*
X44635Y-45822D01*
X44580Y-45845D01*
X44538Y-45887D01*
X44515Y-45942D01*
X44515Y-46002D01*
X44515Y-46401D01*
X44553Y-46439D01*
X45034Y-46439D01*
X45034Y-46489D01*
X44553Y-46489D01*
X44515Y-46526D01*
X44515Y-46926D01*
X44515Y-46986D01*
X44538Y-47041D01*
X44580Y-47083D01*
X44635Y-47106D01*
X44996Y-47106D01*
X45034Y-47068D01*
X45034Y-48005D01*
X44996Y-47968D01*
X44635Y-47968D01*
X44620Y-47974D01*
X44620Y-47391D01*
X44552Y-47227D01*
X44426Y-47101D01*
X44262Y-47033D01*
X44084Y-47033D01*
X43920Y-47101D01*
X43794Y-47226D01*
X43726Y-47391D01*
X43726Y-47568D01*
X43793Y-47733D01*
X43919Y-47859D01*
X44083Y-47927D01*
X44261Y-47927D01*
X44425Y-47859D01*
X44551Y-47733D01*
X44620Y-47569D01*
X44620Y-47391D01*
X44620Y-47974D01*
X44580Y-47991D01*
X44538Y-48033D01*
X44515Y-48088D01*
X44515Y-48148D01*
X44515Y-48547D01*
X44553Y-48585D01*
X45034Y-48585D01*
X45034Y-48635D01*
X44984Y-48635D01*
X44553Y-48635D01*
X44515Y-48672D01*
X44515Y-48933D01*
X42098Y-48933D01*
X42098Y-48148D01*
X42098Y-48088D01*
X42075Y-48033D01*
X42033Y-47991D01*
X41978Y-47968D01*
X41617Y-47968D01*
X41580Y-48005D01*
X41580Y-48585D01*
X42061Y-48585D01*
X42098Y-48547D01*
X42098Y-48148D01*
X42098Y-48933D01*
X42098Y-48933D01*
X42098Y-48672D01*
X42061Y-48635D01*
X41630Y-48635D01*
X41580Y-48635D01*
X41530Y-48635D01*
X41530Y-48585D01*
X41530Y-48005D01*
X41530Y-47068D01*
X41530Y-46489D01*
X41530Y-46439D01*
X41530Y-45859D01*
X41492Y-45822D01*
X41131Y-45822D01*
X41076Y-45845D01*
X41034Y-45887D01*
X41011Y-45942D01*
X41011Y-46002D01*
X41011Y-46401D01*
X41049Y-46439D01*
X41530Y-46439D01*
X41530Y-46489D01*
X41049Y-46489D01*
X41011Y-46526D01*
X41011Y-46926D01*
X41011Y-46986D01*
X41034Y-47041D01*
X41076Y-47083D01*
X41131Y-47106D01*
X41492Y-47106D01*
X41530Y-47068D01*
X41530Y-48005D01*
X41492Y-47968D01*
X41131Y-47968D01*
X41076Y-47991D01*
X41034Y-48033D01*
X41011Y-48088D01*
X41011Y-48148D01*
X41011Y-48547D01*
X41049Y-48585D01*
X41530Y-48585D01*
X41530Y-48635D01*
X41480Y-48635D01*
X41049Y-48635D01*
X41011Y-48672D01*
X41011Y-48933D01*
X40183Y-48933D01*
X39965Y-48889D01*
X39801Y-48780D01*
X39693Y-48618D01*
X39649Y-48397D01*
X39649Y-45160D01*
X39710Y-45250D01*
X39946Y-45486D01*
X40079Y-45575D01*
X40079Y-45575D01*
X40236Y-45606D01*
X40430Y-45606D01*
X40456Y-45633D01*
X40548Y-45671D01*
X40648Y-45671D01*
X40898Y-45671D01*
X40990Y-45633D01*
X41023Y-45600D01*
X41056Y-45633D01*
X41148Y-45671D01*
X41248Y-45671D01*
X41496Y-45671D01*
X41529Y-45752D01*
X41608Y-45831D01*
X41580Y-45859D01*
X41580Y-46439D01*
X42061Y-46439D01*
X42098Y-46401D01*
X42098Y-46007D01*
X42159Y-46048D01*
X42159Y-46048D01*
X42283Y-46073D01*
X42328Y-46073D01*
X42328Y-46907D01*
X42366Y-46999D01*
X42400Y-47033D01*
X42352Y-47033D01*
X42188Y-47101D01*
X42098Y-47190D01*
X42098Y-46926D01*
X42098Y-46526D01*
X42061Y-46489D01*
X41580Y-46489D01*
X41580Y-47068D01*
X41617Y-47106D01*
X41978Y-47106D01*
X42033Y-47083D01*
X42075Y-47041D01*
X42098Y-46986D01*
X42098Y-46926D01*
X42098Y-47190D01*
X42062Y-47226D01*
X41994Y-47391D01*
X41994Y-47568D01*
X42061Y-47733D01*
X42187Y-47859D01*
X42351Y-47927D01*
X42417Y-47927D01*
X42409Y-47946D01*
X42409Y-48115D01*
X42474Y-48271D01*
X42593Y-48391D01*
X42749Y-48456D01*
X42918Y-48456D01*
X43075Y-48392D01*
X43149Y-48317D01*
X43223Y-48391D01*
X43379Y-48456D01*
X43548Y-48456D01*
X43704Y-48392D01*
X43824Y-48272D01*
X43889Y-48116D01*
X43889Y-47947D01*
X43825Y-47791D01*
X43705Y-47671D01*
X43632Y-47640D01*
X43632Y-47108D01*
X43770Y-47108D01*
X43862Y-47070D01*
X43932Y-47000D01*
X43962Y-46928D01*
X43962Y-46970D01*
X43999Y-47008D01*
X44065Y-47008D01*
X44120Y-46985D01*
X44162Y-46943D01*
X44185Y-46888D01*
X44185Y-46828D01*
X44185Y-46477D01*
X44148Y-46440D01*
X43970Y-46440D01*
X43970Y-46390D01*
X44148Y-46390D01*
X44185Y-46352D01*
X44185Y-46002D01*
X44185Y-45942D01*
X44162Y-45887D01*
X44120Y-45845D01*
X44065Y-45822D01*
X43999Y-45822D01*
X43962Y-45859D01*
X43962Y-45902D01*
X43932Y-45830D01*
X43862Y-45760D01*
X43770Y-45722D01*
X43759Y-45722D01*
X43764Y-45714D01*
X43764Y-45714D01*
X43784Y-45616D01*
X43830Y-45597D01*
X43901Y-45527D01*
X43939Y-45435D01*
X43939Y-45336D01*
X43939Y-45086D01*
X43901Y-44994D01*
X43868Y-44960D01*
X43901Y-44927D01*
X43939Y-44835D01*
X43939Y-44736D01*
X43939Y-44486D01*
X43901Y-44394D01*
X43831Y-44323D01*
X43789Y-44306D01*
X43789Y-43567D01*
X44249Y-43567D01*
X44238Y-43593D01*
X44238Y-43693D01*
X44238Y-43890D01*
X44276Y-43981D01*
X44346Y-44052D01*
X44438Y-44090D01*
X44537Y-44090D01*
X45403Y-44090D01*
X45460Y-44067D01*
X45864Y-44067D01*
X45988Y-44042D01*
X45988Y-44042D01*
X46093Y-43971D01*
X46214Y-43851D01*
X46284Y-43746D01*
X46284Y-43746D01*
X46309Y-43622D01*
X46309Y-42717D01*
X46344Y-42682D01*
X46409Y-42525D01*
X46409Y-42356D01*
X46344Y-42200D01*
X46225Y-42080D01*
X46069Y-42016D01*
X45924Y-42015D01*
X45928Y-42008D01*
X45955Y-41874D01*
X45955Y-41231D01*
X46030Y-41262D01*
X46130Y-41262D01*
X46380Y-41262D01*
X46471Y-41224D01*
X46542Y-41154D01*
X46580Y-41062D01*
X46580Y-40962D01*
X46580Y-40792D01*
X46580Y-40792D01*
X46618Y-40734D01*
X46618Y-40734D01*
X46643Y-40610D01*
X46643Y-40390D01*
X46695Y-40369D01*
X46766Y-40299D01*
X46804Y-40207D01*
X46804Y-40107D01*
X46804Y-39797D01*
X46811Y-39801D01*
X46921Y-39965D01*
X46969Y-40210D01*
X46969Y-40211D01*
X46989Y-40312D01*
X46948Y-40353D01*
X46895Y-40481D01*
X46895Y-40620D01*
X46948Y-40748D01*
X46895Y-40875D01*
X46895Y-41013D01*
X46948Y-41141D01*
X46895Y-41268D01*
X46895Y-41407D01*
X46948Y-41535D01*
X46895Y-41662D01*
X46895Y-41801D01*
X46948Y-41929D01*
X46895Y-42056D01*
X46895Y-42194D01*
X46948Y-42323D01*
X47046Y-42421D01*
X47046Y-42421D01*
X47043Y-42426D01*
X46994Y-42673D01*
X46994Y-45909D01*
X47043Y-46155D01*
X47046Y-46161D01*
G54D10*
G36*
X49075Y-41262D02*
X48631Y-41705D01*
X48552Y-41705D01*
X48379Y-41777D01*
X48379Y-41663D01*
X48327Y-41535D01*
X48379Y-41408D01*
X48379Y-41269D01*
X48327Y-41141D01*
X48379Y-41014D01*
X48379Y-40875D01*
X48327Y-40747D01*
X48379Y-40620D01*
X48379Y-40482D01*
X48327Y-40354D01*
X48285Y-40312D01*
X48305Y-40212D01*
X48305Y-40212D01*
X48355Y-39964D01*
X48463Y-39802D01*
X48571Y-39730D01*
X48571Y-39858D01*
X48608Y-39896D01*
X48882Y-39896D01*
X48932Y-39896D01*
X48982Y-39896D01*
X48982Y-39946D01*
X48932Y-39946D01*
X48882Y-39946D01*
X48608Y-39946D01*
X48571Y-39983D01*
X48571Y-40127D01*
X48571Y-40187D01*
X48593Y-40242D01*
X48636Y-40284D01*
X48691Y-40307D01*
X48894Y-40307D01*
X48918Y-40307D01*
X48913Y-40312D01*
X48895Y-40312D01*
X48803Y-40350D01*
X48733Y-40420D01*
X48695Y-40512D01*
X48695Y-40611D01*
X48695Y-41061D01*
X48733Y-41153D01*
X48803Y-41224D01*
X48895Y-41262D01*
X48994Y-41262D01*
X49075Y-41262D01*
X49075Y-41262D01*
G37*
G54D25*
X49075Y-41262D02*
X48631Y-41705D01*
X48552Y-41705D01*
X48379Y-41777D01*
X48379Y-41663D01*
X48327Y-41535D01*
X48379Y-41408D01*
X48379Y-41269D01*
X48327Y-41141D01*
X48379Y-41014D01*
X48379Y-40875D01*
X48327Y-40747D01*
X48379Y-40620D01*
X48379Y-40482D01*
X48327Y-40354D01*
X48285Y-40312D01*
X48305Y-40212D01*
X48305Y-40212D01*
X48355Y-39964D01*
X48463Y-39802D01*
X48571Y-39730D01*
X48571Y-39858D01*
X48608Y-39896D01*
X48882Y-39896D01*
X48932Y-39896D01*
X48982Y-39896D01*
X48982Y-39946D01*
X48932Y-39946D01*
X48882Y-39946D01*
X48608Y-39946D01*
X48571Y-39983D01*
X48571Y-40127D01*
X48571Y-40187D01*
X48593Y-40242D01*
X48636Y-40284D01*
X48691Y-40307D01*
X48894Y-40307D01*
X48918Y-40307D01*
X48913Y-40312D01*
X48895Y-40312D01*
X48803Y-40350D01*
X48733Y-40420D01*
X48695Y-40512D01*
X48695Y-40611D01*
X48695Y-41061D01*
X48733Y-41153D01*
X48803Y-41224D01*
X48895Y-41262D01*
X48994Y-41262D01*
X49075Y-41262D01*
G54D10*
G36*
X51800Y-44306D02*
X51759Y-44323D01*
X51689Y-44393D01*
X51653Y-44479D01*
X51618Y-44394D01*
X51547Y-44323D01*
X51456Y-44285D01*
X51356Y-44285D01*
X50937Y-44285D01*
X50937Y-43870D01*
X50937Y-43804D01*
X50899Y-43767D01*
X50379Y-43767D01*
X50379Y-43953D01*
X50416Y-43990D01*
X50757Y-43990D01*
X50817Y-43990D01*
X50872Y-43967D01*
X50914Y-43925D01*
X50937Y-43870D01*
X50937Y-44285D01*
X50906Y-44285D01*
X50814Y-44323D01*
X50802Y-44335D01*
X50070Y-44335D01*
X49931Y-44196D01*
X49931Y-43990D01*
X49950Y-43990D01*
X50291Y-43990D01*
X50329Y-43953D01*
X50329Y-43817D01*
X50329Y-43767D01*
X50329Y-43717D01*
X50379Y-43717D01*
X50429Y-43717D01*
X50899Y-43717D01*
X50937Y-43679D01*
X50937Y-43613D01*
X50918Y-43567D01*
X51690Y-43567D01*
X51800Y-43677D01*
X51800Y-44306D01*
X51800Y-44306D01*
G37*
G54D25*
X51800Y-44306D02*
X51759Y-44323D01*
X51689Y-44393D01*
X51653Y-44479D01*
X51618Y-44394D01*
X51547Y-44323D01*
X51456Y-44285D01*
X51356Y-44285D01*
X50937Y-44285D01*
X50937Y-43870D01*
X50937Y-43804D01*
X50899Y-43767D01*
X50379Y-43767D01*
X50379Y-43953D01*
X50416Y-43990D01*
X50757Y-43990D01*
X50817Y-43990D01*
X50872Y-43967D01*
X50914Y-43925D01*
X50937Y-43870D01*
X50937Y-44285D01*
X50906Y-44285D01*
X50814Y-44323D01*
X50802Y-44335D01*
X50070Y-44335D01*
X49931Y-44196D01*
X49931Y-43990D01*
X49950Y-43990D01*
X50291Y-43990D01*
X50329Y-43953D01*
X50329Y-43817D01*
X50329Y-43767D01*
X50329Y-43717D01*
X50379Y-43717D01*
X50429Y-43717D01*
X50899Y-43717D01*
X50937Y-43679D01*
X50937Y-43613D01*
X50918Y-43567D01*
X51690Y-43567D01*
X51800Y-43677D01*
X51800Y-44306D01*
G54D10*
G36*
X54591Y-40358D02*
X54566Y-40383D01*
X54533Y-40350D01*
X54441Y-40312D01*
X54342Y-40312D01*
X54128Y-40312D01*
X54128Y-40269D01*
X54128Y-39946D01*
X53805Y-39946D01*
X53767Y-39983D01*
X53767Y-40127D01*
X53767Y-40187D01*
X53790Y-40242D01*
X53833Y-40284D01*
X53888Y-40307D01*
X54091Y-40307D01*
X54128Y-40269D01*
X54128Y-40312D01*
X54092Y-40312D01*
X54000Y-40350D01*
X53930Y-40420D01*
X53891Y-40512D01*
X53891Y-40611D01*
X53891Y-41061D01*
X53916Y-41122D01*
X53916Y-41729D01*
X53754Y-41892D01*
X53582Y-41892D01*
X53574Y-41893D01*
X53100Y-41893D01*
X53043Y-41917D01*
X52911Y-41917D01*
X52839Y-41844D01*
X52683Y-41779D01*
X52514Y-41779D01*
X52357Y-41844D01*
X52293Y-41908D01*
X52293Y-41346D01*
X52434Y-41205D01*
X52468Y-41123D01*
X52501Y-41204D01*
X52656Y-41359D01*
X52858Y-41443D01*
X53077Y-41443D01*
X53279Y-41360D01*
X53434Y-41205D01*
X53518Y-41003D01*
X53518Y-40784D01*
X53435Y-40582D01*
X53280Y-40427D01*
X53078Y-40343D01*
X52971Y-40343D01*
X53064Y-40342D01*
X53217Y-40279D01*
X53248Y-40208D01*
X52968Y-39929D01*
X52688Y-40208D01*
X52719Y-40279D01*
X52882Y-40343D01*
X52859Y-40343D01*
X52657Y-40427D01*
X52502Y-40581D01*
X52468Y-40663D01*
X52435Y-40582D01*
X52280Y-40427D01*
X52198Y-40393D01*
X52279Y-40360D01*
X52434Y-40205D01*
X52518Y-40003D01*
X52518Y-39896D01*
X52519Y-39990D01*
X52583Y-40142D01*
X52653Y-40173D01*
X52897Y-39929D01*
X52897Y-39929D01*
X52933Y-39893D01*
X52968Y-39858D01*
X53039Y-39929D01*
X53283Y-40173D01*
X53353Y-40142D01*
X53419Y-39976D01*
X53417Y-39797D01*
X53355Y-39649D01*
X53770Y-39649D01*
X53767Y-39655D01*
X53767Y-39714D01*
X53767Y-39858D01*
X53805Y-39896D01*
X54078Y-39896D01*
X54128Y-39896D01*
X54178Y-39896D01*
X54178Y-39946D01*
X54178Y-39996D01*
X54178Y-40269D01*
X54216Y-40307D01*
X54419Y-40307D01*
X54474Y-40284D01*
X54511Y-40248D01*
X54531Y-40298D01*
X54591Y-40358D01*
X54591Y-40358D01*
G37*
G54D25*
X54591Y-40358D02*
X54566Y-40383D01*
X54533Y-40350D01*
X54441Y-40312D01*
X54342Y-40312D01*
X54128Y-40312D01*
X54128Y-40269D01*
X54128Y-39946D01*
X53805Y-39946D01*
X53767Y-39983D01*
X53767Y-40127D01*
X53767Y-40187D01*
X53790Y-40242D01*
X53833Y-40284D01*
X53888Y-40307D01*
X54091Y-40307D01*
X54128Y-40269D01*
X54128Y-40312D01*
X54092Y-40312D01*
X54000Y-40350D01*
X53930Y-40420D01*
X53891Y-40512D01*
X53891Y-40611D01*
X53891Y-41061D01*
X53916Y-41122D01*
X53916Y-41729D01*
X53754Y-41892D01*
X53582Y-41892D01*
X53574Y-41893D01*
X53100Y-41893D01*
X53043Y-41917D01*
X52911Y-41917D01*
X52839Y-41844D01*
X52683Y-41779D01*
X52514Y-41779D01*
X52357Y-41844D01*
X52293Y-41908D01*
X52293Y-41346D01*
X52434Y-41205D01*
X52468Y-41123D01*
X52501Y-41204D01*
X52656Y-41359D01*
X52858Y-41443D01*
X53077Y-41443D01*
X53279Y-41360D01*
X53434Y-41205D01*
X53518Y-41003D01*
X53518Y-40784D01*
X53435Y-40582D01*
X53280Y-40427D01*
X53078Y-40343D01*
X52971Y-40343D01*
X53064Y-40342D01*
X53217Y-40279D01*
X53248Y-40208D01*
X52968Y-39929D01*
X52688Y-40208D01*
X52719Y-40279D01*
X52882Y-40343D01*
X52859Y-40343D01*
X52657Y-40427D01*
X52502Y-40581D01*
X52468Y-40663D01*
X52435Y-40582D01*
X52280Y-40427D01*
X52198Y-40393D01*
X52279Y-40360D01*
X52434Y-40205D01*
X52518Y-40003D01*
X52518Y-39896D01*
X52519Y-39990D01*
X52583Y-40142D01*
X52653Y-40173D01*
X52897Y-39929D01*
X52897Y-39929D01*
X52933Y-39893D01*
X52968Y-39858D01*
X53039Y-39929D01*
X53283Y-40173D01*
X53353Y-40142D01*
X53419Y-39976D01*
X53417Y-39797D01*
X53355Y-39649D01*
X53770Y-39649D01*
X53767Y-39655D01*
X53767Y-39714D01*
X53767Y-39858D01*
X53805Y-39896D01*
X54078Y-39896D01*
X54128Y-39896D01*
X54178Y-39896D01*
X54178Y-39946D01*
X54178Y-39996D01*
X54178Y-40269D01*
X54216Y-40307D01*
X54419Y-40307D01*
X54474Y-40284D01*
X54511Y-40248D01*
X54531Y-40298D01*
X54591Y-40358D01*
G54D10*
G36*
X55625Y-48398D02*
X55582Y-48616D01*
X55472Y-48780D01*
X55310Y-48889D01*
X55090Y-48933D01*
X54264Y-48933D01*
X54264Y-48148D01*
X54264Y-46926D01*
X54264Y-46002D01*
X54263Y-45942D01*
X54241Y-45887D01*
X54198Y-45845D01*
X54143Y-45822D01*
X53783Y-45822D01*
X53745Y-45859D01*
X53745Y-46439D01*
X54226Y-46439D01*
X54264Y-46401D01*
X54264Y-46002D01*
X54264Y-46926D01*
X54264Y-46526D01*
X54226Y-46489D01*
X53745Y-46489D01*
X53745Y-47068D01*
X53783Y-47106D01*
X54143Y-47106D01*
X54198Y-47083D01*
X54241Y-47041D01*
X54263Y-46986D01*
X54264Y-46926D01*
X54264Y-48148D01*
X54263Y-48088D01*
X54241Y-48033D01*
X54198Y-47991D01*
X54143Y-47968D01*
X53783Y-47968D01*
X53745Y-48005D01*
X53745Y-48585D01*
X54226Y-48585D01*
X54264Y-48547D01*
X54264Y-48148D01*
X54264Y-48933D01*
X54264Y-48933D01*
X54264Y-48672D01*
X54226Y-48635D01*
X53795Y-48635D01*
X53745Y-48635D01*
X53695Y-48635D01*
X53695Y-48585D01*
X53695Y-48005D01*
X53695Y-47068D01*
X53695Y-46489D01*
X53695Y-46439D01*
X53695Y-45859D01*
X53658Y-45822D01*
X53297Y-45822D01*
X53242Y-45845D01*
X53199Y-45887D01*
X53177Y-45942D01*
X53176Y-46002D01*
X53177Y-46401D01*
X53214Y-46439D01*
X53695Y-46439D01*
X53695Y-46489D01*
X53214Y-46489D01*
X53177Y-46526D01*
X53176Y-46926D01*
X53177Y-46986D01*
X53199Y-47041D01*
X53242Y-47083D01*
X53297Y-47106D01*
X53658Y-47106D01*
X53695Y-47068D01*
X53695Y-48005D01*
X53658Y-47968D01*
X53297Y-47968D01*
X53281Y-47974D01*
X53281Y-47391D01*
X53213Y-47227D01*
X53088Y-47101D01*
X52923Y-47033D01*
X52745Y-47033D01*
X52581Y-47101D01*
X52455Y-47226D01*
X52387Y-47391D01*
X52387Y-47568D01*
X52455Y-47733D01*
X52580Y-47859D01*
X52745Y-47927D01*
X52923Y-47927D01*
X53087Y-47859D01*
X53213Y-47733D01*
X53281Y-47569D01*
X53281Y-47391D01*
X53281Y-47974D01*
X53242Y-47991D01*
X53199Y-48033D01*
X53177Y-48088D01*
X53176Y-48148D01*
X53177Y-48547D01*
X53214Y-48585D01*
X53695Y-48585D01*
X53695Y-48635D01*
X53645Y-48635D01*
X53214Y-48635D01*
X53177Y-48672D01*
X53176Y-48933D01*
X50760Y-48933D01*
X50760Y-48148D01*
X50759Y-48088D01*
X50737Y-48033D01*
X50694Y-47991D01*
X50639Y-47968D01*
X50279Y-47968D01*
X50241Y-48005D01*
X50241Y-48585D01*
X50722Y-48585D01*
X50760Y-48547D01*
X50760Y-48148D01*
X50760Y-48933D01*
X50760Y-48933D01*
X50760Y-48672D01*
X50722Y-48635D01*
X50291Y-48635D01*
X50241Y-48635D01*
X50191Y-48635D01*
X50191Y-48585D01*
X50191Y-48005D01*
X50191Y-47068D01*
X50191Y-46489D01*
X50191Y-46439D01*
X50191Y-45859D01*
X50154Y-45822D01*
X49793Y-45822D01*
X49738Y-45845D01*
X49695Y-45887D01*
X49673Y-45942D01*
X49672Y-46002D01*
X49673Y-46401D01*
X49710Y-46439D01*
X50191Y-46439D01*
X50191Y-46489D01*
X49710Y-46489D01*
X49673Y-46526D01*
X49672Y-46926D01*
X49673Y-46986D01*
X49695Y-47041D01*
X49738Y-47083D01*
X49793Y-47106D01*
X50154Y-47106D01*
X50191Y-47068D01*
X50191Y-48005D01*
X50154Y-47968D01*
X49793Y-47968D01*
X49738Y-47991D01*
X49695Y-48033D01*
X49673Y-48088D01*
X49672Y-48148D01*
X49673Y-48547D01*
X49710Y-48585D01*
X50191Y-48585D01*
X50191Y-48635D01*
X50141Y-48635D01*
X49710Y-48635D01*
X49673Y-48672D01*
X49672Y-48933D01*
X48845Y-48933D01*
X48627Y-48889D01*
X48463Y-48780D01*
X48355Y-48618D01*
X48305Y-48370D01*
X48270Y-48285D01*
X48326Y-48229D01*
X48379Y-48101D01*
X48379Y-47962D01*
X48327Y-47834D01*
X48379Y-47707D01*
X48379Y-47568D01*
X48327Y-47440D01*
X48379Y-47313D01*
X48379Y-47175D01*
X48327Y-47047D01*
X48379Y-46920D01*
X48379Y-46781D01*
X48327Y-46653D01*
X48379Y-46526D01*
X48379Y-46387D01*
X48327Y-46259D01*
X48229Y-46161D01*
X48228Y-46161D01*
X48232Y-46155D01*
X48281Y-45909D01*
X48281Y-45111D01*
X48282Y-45117D01*
X48371Y-45250D01*
X48607Y-45486D01*
X48740Y-45575D01*
X48740Y-45575D01*
X48897Y-45606D01*
X49091Y-45606D01*
X49118Y-45633D01*
X49210Y-45671D01*
X49309Y-45671D01*
X49559Y-45671D01*
X49651Y-45633D01*
X49685Y-45600D01*
X49718Y-45633D01*
X49810Y-45671D01*
X49909Y-45671D01*
X50157Y-45671D01*
X50190Y-45752D01*
X50269Y-45831D01*
X50241Y-45859D01*
X50241Y-46439D01*
X50722Y-46439D01*
X50760Y-46401D01*
X50760Y-46007D01*
X50820Y-46048D01*
X50820Y-46048D01*
X50944Y-46073D01*
X50989Y-46073D01*
X50989Y-46907D01*
X51027Y-46999D01*
X51061Y-47033D01*
X51013Y-47033D01*
X50849Y-47101D01*
X50760Y-47190D01*
X50760Y-46926D01*
X50760Y-46526D01*
X50722Y-46489D01*
X50241Y-46489D01*
X50241Y-47068D01*
X50279Y-47106D01*
X50639Y-47106D01*
X50694Y-47083D01*
X50737Y-47041D01*
X50759Y-46986D01*
X50760Y-46926D01*
X50760Y-47190D01*
X50723Y-47226D01*
X50655Y-47391D01*
X50655Y-47568D01*
X50723Y-47733D01*
X50848Y-47859D01*
X51013Y-47927D01*
X51079Y-47927D01*
X51071Y-47946D01*
X51070Y-48115D01*
X51135Y-48271D01*
X51255Y-48391D01*
X51411Y-48456D01*
X51580Y-48456D01*
X51736Y-48392D01*
X51811Y-48317D01*
X51884Y-48391D01*
X52041Y-48456D01*
X52210Y-48456D01*
X52366Y-48392D01*
X52486Y-48272D01*
X52550Y-48116D01*
X52551Y-47947D01*
X52486Y-47791D01*
X52367Y-47671D01*
X52293Y-47640D01*
X52293Y-47108D01*
X52431Y-47108D01*
X52523Y-47070D01*
X52593Y-47000D01*
X52623Y-46928D01*
X52623Y-46970D01*
X52661Y-47008D01*
X52726Y-47008D01*
X52781Y-46985D01*
X52824Y-46943D01*
X52846Y-46888D01*
X52847Y-46828D01*
X52847Y-46477D01*
X52809Y-46440D01*
X52632Y-46440D01*
X52632Y-46390D01*
X52809Y-46390D01*
X52847Y-46352D01*
X52847Y-46002D01*
X52846Y-45942D01*
X52824Y-45887D01*
X52781Y-45845D01*
X52726Y-45822D01*
X52661Y-45822D01*
X52623Y-45859D01*
X52623Y-45902D01*
X52594Y-45830D01*
X52523Y-45760D01*
X52431Y-45722D01*
X52421Y-45722D01*
X52426Y-45714D01*
X52426Y-45714D01*
X52445Y-45616D01*
X52492Y-45597D01*
X52562Y-45527D01*
X52600Y-45435D01*
X52601Y-45336D01*
X52601Y-45086D01*
X52563Y-44994D01*
X52529Y-44960D01*
X52562Y-44927D01*
X52600Y-44835D01*
X52601Y-44736D01*
X52601Y-44486D01*
X52563Y-44394D01*
X52492Y-44323D01*
X52450Y-44306D01*
X52450Y-43567D01*
X52910Y-43567D01*
X52899Y-43593D01*
X52899Y-43693D01*
X52899Y-43890D01*
X52937Y-43981D01*
X53007Y-44052D01*
X53099Y-44090D01*
X53199Y-44090D01*
X54065Y-44090D01*
X54122Y-44067D01*
X54525Y-44067D01*
X54649Y-44042D01*
X54649Y-44042D01*
X54755Y-43971D01*
X54875Y-43851D01*
X54945Y-43746D01*
X54945Y-43746D01*
X54970Y-43622D01*
X54970Y-42717D01*
X55005Y-42682D01*
X55070Y-42525D01*
X55070Y-42356D01*
X55006Y-42200D01*
X54886Y-42080D01*
X54730Y-42016D01*
X54585Y-42015D01*
X54590Y-42008D01*
X54616Y-41874D01*
X54616Y-41231D01*
X54691Y-41262D01*
X54791Y-41262D01*
X55041Y-41262D01*
X55133Y-41224D01*
X55203Y-41154D01*
X55241Y-41062D01*
X55241Y-40962D01*
X55241Y-40792D01*
X55241Y-40792D01*
X55280Y-40734D01*
X55280Y-40734D01*
X55304Y-40610D01*
X55304Y-40390D01*
X55357Y-40369D01*
X55427Y-40299D01*
X55465Y-40207D01*
X55465Y-40107D01*
X55465Y-39797D01*
X55472Y-39801D01*
X55582Y-39965D01*
X55625Y-40183D01*
X55625Y-48398D01*
X55625Y-48398D01*
G37*
G54D25*
X55625Y-48398D02*
X55582Y-48616D01*
X55472Y-48780D01*
X55310Y-48889D01*
X55090Y-48933D01*
X54264Y-48933D01*
X54264Y-48148D01*
X54264Y-46926D01*
X54264Y-46002D01*
X54263Y-45942D01*
X54241Y-45887D01*
X54198Y-45845D01*
X54143Y-45822D01*
X53783Y-45822D01*
X53745Y-45859D01*
X53745Y-46439D01*
X54226Y-46439D01*
X54264Y-46401D01*
X54264Y-46002D01*
X54264Y-46926D01*
X54264Y-46526D01*
X54226Y-46489D01*
X53745Y-46489D01*
X53745Y-47068D01*
X53783Y-47106D01*
X54143Y-47106D01*
X54198Y-47083D01*
X54241Y-47041D01*
X54263Y-46986D01*
X54264Y-46926D01*
X54264Y-48148D01*
X54263Y-48088D01*
X54241Y-48033D01*
X54198Y-47991D01*
X54143Y-47968D01*
X53783Y-47968D01*
X53745Y-48005D01*
X53745Y-48585D01*
X54226Y-48585D01*
X54264Y-48547D01*
X54264Y-48148D01*
X54264Y-48933D01*
X54264Y-48933D01*
X54264Y-48672D01*
X54226Y-48635D01*
X53795Y-48635D01*
X53745Y-48635D01*
X53695Y-48635D01*
X53695Y-48585D01*
X53695Y-48005D01*
X53695Y-47068D01*
X53695Y-46489D01*
X53695Y-46439D01*
X53695Y-45859D01*
X53658Y-45822D01*
X53297Y-45822D01*
X53242Y-45845D01*
X53199Y-45887D01*
X53177Y-45942D01*
X53176Y-46002D01*
X53177Y-46401D01*
X53214Y-46439D01*
X53695Y-46439D01*
X53695Y-46489D01*
X53214Y-46489D01*
X53177Y-46526D01*
X53176Y-46926D01*
X53177Y-46986D01*
X53199Y-47041D01*
X53242Y-47083D01*
X53297Y-47106D01*
X53658Y-47106D01*
X53695Y-47068D01*
X53695Y-48005D01*
X53658Y-47968D01*
X53297Y-47968D01*
X53281Y-47974D01*
X53281Y-47391D01*
X53213Y-47227D01*
X53088Y-47101D01*
X52923Y-47033D01*
X52745Y-47033D01*
X52581Y-47101D01*
X52455Y-47226D01*
X52387Y-47391D01*
X52387Y-47568D01*
X52455Y-47733D01*
X52580Y-47859D01*
X52745Y-47927D01*
X52923Y-47927D01*
X53087Y-47859D01*
X53213Y-47733D01*
X53281Y-47569D01*
X53281Y-47391D01*
X53281Y-47974D01*
X53242Y-47991D01*
X53199Y-48033D01*
X53177Y-48088D01*
X53176Y-48148D01*
X53177Y-48547D01*
X53214Y-48585D01*
X53695Y-48585D01*
X53695Y-48635D01*
X53645Y-48635D01*
X53214Y-48635D01*
X53177Y-48672D01*
X53176Y-48933D01*
X50760Y-48933D01*
X50760Y-48148D01*
X50759Y-48088D01*
X50737Y-48033D01*
X50694Y-47991D01*
X50639Y-47968D01*
X50279Y-47968D01*
X50241Y-48005D01*
X50241Y-48585D01*
X50722Y-48585D01*
X50760Y-48547D01*
X50760Y-48148D01*
X50760Y-48933D01*
X50760Y-48933D01*
X50760Y-48672D01*
X50722Y-48635D01*
X50291Y-48635D01*
X50241Y-48635D01*
X50191Y-48635D01*
X50191Y-48585D01*
X50191Y-48005D01*
X50191Y-47068D01*
X50191Y-46489D01*
X50191Y-46439D01*
X50191Y-45859D01*
X50154Y-45822D01*
X49793Y-45822D01*
X49738Y-45845D01*
X49695Y-45887D01*
X49673Y-45942D01*
X49672Y-46002D01*
X49673Y-46401D01*
X49710Y-46439D01*
X50191Y-46439D01*
X50191Y-46489D01*
X49710Y-46489D01*
X49673Y-46526D01*
X49672Y-46926D01*
X49673Y-46986D01*
X49695Y-47041D01*
X49738Y-47083D01*
X49793Y-47106D01*
X50154Y-47106D01*
X50191Y-47068D01*
X50191Y-48005D01*
X50154Y-47968D01*
X49793Y-47968D01*
X49738Y-47991D01*
X49695Y-48033D01*
X49673Y-48088D01*
X49672Y-48148D01*
X49673Y-48547D01*
X49710Y-48585D01*
X50191Y-48585D01*
X50191Y-48635D01*
X50141Y-48635D01*
X49710Y-48635D01*
X49673Y-48672D01*
X49672Y-48933D01*
X48845Y-48933D01*
X48627Y-48889D01*
X48463Y-48780D01*
X48355Y-48618D01*
X48305Y-48370D01*
X48270Y-48285D01*
X48326Y-48229D01*
X48379Y-48101D01*
X48379Y-47962D01*
X48327Y-47834D01*
X48379Y-47707D01*
X48379Y-47568D01*
X48327Y-47440D01*
X48379Y-47313D01*
X48379Y-47175D01*
X48327Y-47047D01*
X48379Y-46920D01*
X48379Y-46781D01*
X48327Y-46653D01*
X48379Y-46526D01*
X48379Y-46387D01*
X48327Y-46259D01*
X48229Y-46161D01*
X48228Y-46161D01*
X48232Y-46155D01*
X48281Y-45909D01*
X48281Y-45111D01*
X48282Y-45117D01*
X48371Y-45250D01*
X48607Y-45486D01*
X48740Y-45575D01*
X48740Y-45575D01*
X48897Y-45606D01*
X49091Y-45606D01*
X49118Y-45633D01*
X49210Y-45671D01*
X49309Y-45671D01*
X49559Y-45671D01*
X49651Y-45633D01*
X49685Y-45600D01*
X49718Y-45633D01*
X49810Y-45671D01*
X49909Y-45671D01*
X50157Y-45671D01*
X50190Y-45752D01*
X50269Y-45831D01*
X50241Y-45859D01*
X50241Y-46439D01*
X50722Y-46439D01*
X50760Y-46401D01*
X50760Y-46007D01*
X50820Y-46048D01*
X50820Y-46048D01*
X50944Y-46073D01*
X50989Y-46073D01*
X50989Y-46907D01*
X51027Y-46999D01*
X51061Y-47033D01*
X51013Y-47033D01*
X50849Y-47101D01*
X50760Y-47190D01*
X50760Y-46926D01*
X50760Y-46526D01*
X50722Y-46489D01*
X50241Y-46489D01*
X50241Y-47068D01*
X50279Y-47106D01*
X50639Y-47106D01*
X50694Y-47083D01*
X50737Y-47041D01*
X50759Y-46986D01*
X50760Y-46926D01*
X50760Y-47190D01*
X50723Y-47226D01*
X50655Y-47391D01*
X50655Y-47568D01*
X50723Y-47733D01*
X50848Y-47859D01*
X51013Y-47927D01*
X51079Y-47927D01*
X51071Y-47946D01*
X51070Y-48115D01*
X51135Y-48271D01*
X51255Y-48391D01*
X51411Y-48456D01*
X51580Y-48456D01*
X51736Y-48392D01*
X51811Y-48317D01*
X51884Y-48391D01*
X52041Y-48456D01*
X52210Y-48456D01*
X52366Y-48392D01*
X52486Y-48272D01*
X52550Y-48116D01*
X52551Y-47947D01*
X52486Y-47791D01*
X52367Y-47671D01*
X52293Y-47640D01*
X52293Y-47108D01*
X52431Y-47108D01*
X52523Y-47070D01*
X52593Y-47000D01*
X52623Y-46928D01*
X52623Y-46970D01*
X52661Y-47008D01*
X52726Y-47008D01*
X52781Y-46985D01*
X52824Y-46943D01*
X52846Y-46888D01*
X52847Y-46828D01*
X52847Y-46477D01*
X52809Y-46440D01*
X52632Y-46440D01*
X52632Y-46390D01*
X52809Y-46390D01*
X52847Y-46352D01*
X52847Y-46002D01*
X52846Y-45942D01*
X52824Y-45887D01*
X52781Y-45845D01*
X52726Y-45822D01*
X52661Y-45822D01*
X52623Y-45859D01*
X52623Y-45902D01*
X52594Y-45830D01*
X52523Y-45760D01*
X52431Y-45722D01*
X52421Y-45722D01*
X52426Y-45714D01*
X52426Y-45714D01*
X52445Y-45616D01*
X52492Y-45597D01*
X52562Y-45527D01*
X52600Y-45435D01*
X52601Y-45336D01*
X52601Y-45086D01*
X52563Y-44994D01*
X52529Y-44960D01*
X52562Y-44927D01*
X52600Y-44835D01*
X52601Y-44736D01*
X52601Y-44486D01*
X52563Y-44394D01*
X52492Y-44323D01*
X52450Y-44306D01*
X52450Y-43567D01*
X52910Y-43567D01*
X52899Y-43593D01*
X52899Y-43693D01*
X52899Y-43890D01*
X52937Y-43981D01*
X53007Y-44052D01*
X53099Y-44090D01*
X53199Y-44090D01*
X54065Y-44090D01*
X54122Y-44067D01*
X54525Y-44067D01*
X54649Y-44042D01*
X54649Y-44042D01*
X54755Y-43971D01*
X54875Y-43851D01*
X54945Y-43746D01*
X54945Y-43746D01*
X54970Y-43622D01*
X54970Y-42717D01*
X55005Y-42682D01*
X55070Y-42525D01*
X55070Y-42356D01*
X55006Y-42200D01*
X54886Y-42080D01*
X54730Y-42016D01*
X54585Y-42015D01*
X54590Y-42008D01*
X54616Y-41874D01*
X54616Y-41231D01*
X54691Y-41262D01*
X54791Y-41262D01*
X55041Y-41262D01*
X55133Y-41224D01*
X55203Y-41154D01*
X55241Y-41062D01*
X55241Y-40962D01*
X55241Y-40792D01*
X55241Y-40792D01*
X55280Y-40734D01*
X55280Y-40734D01*
X55304Y-40610D01*
X55304Y-40390D01*
X55357Y-40369D01*
X55427Y-40299D01*
X55465Y-40207D01*
X55465Y-40107D01*
X55465Y-39797D01*
X55472Y-39801D01*
X55582Y-39965D01*
X55625Y-40183D01*
X55625Y-48398D01*
M02*
