M48
;DRILL file {Pcbnew (2012-nov-02)-testing} date Sun 20 Jan 2013 14:43:42 CET
;FORMAT={2:4/ absolute / inch / keep zeros}
FMAT,2
INCH,TZ
T1C0.020
T2C0.035
T3C0.079
%
G90
G05
M72
T1
X047244Y-040551
X047244Y-040945
X047244Y-041339
X047244Y-041732
X047244Y-042126
X047244Y-046457
X047244Y-046850
X047244Y-047244
X047244Y-047638
X047244Y-048031
X048031Y-040551
X048031Y-040945
X048031Y-041339
X048031Y-041732
X048031Y-042126
X048031Y-046457
X048031Y-046850
X048031Y-047244
X048031Y-047638
X048031Y-048031
T2
X042441Y-047480
X044173Y-047480
X051103Y-047480
X052835Y-047480
T3
X047638Y-045866G85X047638Y-042717
G05
T0
M30
