M48
;DRILL file {Pcbnew (2012-nov-02)-testing} date Sun 20 Jan 2013 14:43:42 CET
;FORMAT={2:4/ absolute / inch / keep zeros}
FMAT,2
INCH,TZ
T1C0.020
T2C0.025
T3C0.035
T4C0.040
T5C0.079
%
G90
G05
M72
T1
X047244Y-040551
X047244Y-040945
X047244Y-041339
X047244Y-041732
X047244Y-042126
X047244Y-046457
X047244Y-046850
X047244Y-047244
X047244Y-047638
X047244Y-048031
X048031Y-040551
X048031Y-040945
X048031Y-041339
X048031Y-041732
X048031Y-042126
X048031Y-046457
X048031Y-046850
X048031Y-047244
X048031Y-047638
X048031Y-048031
T2
X039843Y-041260
X040276Y-046220
X040787Y-048622
X041339Y-041811
X041693Y-044252
X041890Y-045512
X042835Y-048031
X043465Y-048031
X043937Y-042205
X045000Y-041654
X045984Y-042441
X045984Y-048622
X046142Y-046260
X048504Y-041260
X048937Y-046220
X049449Y-048622
X050000Y-041811
X050354Y-044252
X050551Y-045512
X051496Y-048031
X052126Y-048031
X052598Y-042205
X053661Y-041654
X054646Y-042441
X054646Y-048622
X054803Y-046260
T3
X042441Y-047480
X044173Y-047480
X051103Y-047480
X052835Y-047480
T4
X040000Y-042256
X040000Y-043256
X042307Y-039894
X042307Y-040894
X043307Y-039894
X043307Y-040894
X044307Y-039894
X044307Y-040894
X048661Y-042256
X048661Y-043256
X050969Y-039894
X050969Y-040894
X051969Y-039894
X051969Y-040894
X052969Y-039894
X052969Y-040894
T5
X047638Y-045866G85X047638Y-042717
G05
T0
M30
